<svg width="338" height="799" viewBox="0 0 338 799" fill="none" xmlns="http://www.w3.org/2000/svg">
<path d="M75.1272 0.508118C74.5794 0.437887 74.0783 0.825035 74.0081 1.37284C73.9379 1.92064 74.325 2.42165 74.8728 2.49188L75.1272 0.508118ZM0.704828 791.394C0.369931 791.833 0.454454 792.46 0.893616 792.795L8.05016 798.253C8.48932 798.588 9.11682 798.503 9.45172 798.064C9.78661 797.625 9.70209 796.997 9.26293 796.662L2.90156 791.811L7.75263 785.45C8.08753 785.011 8.00301 784.383 7.56384 784.048C7.12468 783.713 6.49719 783.798 6.16229 784.237L0.704828 791.394ZM5.6981 792.426C6.24478 792.347 6.62438 791.841 6.54594 791.294C6.46751 790.747 5.96075 790.368 5.41406 790.446L5.6981 792.426ZM13.4288 789.225C12.8835 789.313 12.5128 789.827 12.6007 790.372C12.6886 790.917 13.2019 791.288 13.7471 791.2L13.4288 789.225ZM21.6894 789.848C22.233 789.751 22.5947 789.231 22.4973 788.687C22.3998 788.144 21.8801 787.782 21.3365 787.88L21.6894 789.848ZM29.1376 786.41C28.5958 786.517 28.2434 787.043 28.3504 787.585C28.4575 788.127 28.9835 788.479 29.5253 788.372L29.1376 786.41ZM37.255 786.773C37.7949 786.656 38.1378 786.124 38.0211 785.584C37.9044 785.045 37.3722 784.702 36.8324 784.818L37.255 786.773ZM44.4838 783.091C43.9462 783.218 43.613 783.756 43.7395 784.294C43.866 784.831 44.4043 785.165 44.9419 785.038L44.4838 783.091ZM52.859 783.095C53.3941 782.959 53.717 782.414 53.5802 781.879C53.4434 781.344 52.8988 781.021 52.3637 781.158L52.859 783.095ZM60.1266 779.094C59.5942 779.241 59.2819 779.791 59.429 780.324C59.5761 780.856 60.1269 781.168 60.6592 781.021L60.1266 779.094ZM68.3429 778.818C68.8723 778.66 69.1739 778.104 69.0164 777.574C68.859 777.045 68.3023 776.743 67.7729 776.901L68.3429 778.818ZM75.303 774.581C74.7768 774.749 74.4862 775.312 74.654 775.838C74.8218 776.364 75.3843 776.654 75.9105 776.487L75.303 774.581ZM83.3905 774.02C83.9133 773.842 84.1926 773.274 84.0145 772.751C83.8363 772.228 83.2681 771.949 82.7453 772.127L83.3905 774.02ZM90.3792 769.437C89.8603 769.626 89.5928 770.199 89.7818 770.718C89.9708 771.237 90.5447 771.505 91.0636 771.316L90.3792 769.437ZM98.6106 768.478C99.1255 768.278 99.3809 767.699 99.1811 767.184C98.9813 766.669 98.402 766.414 97.8871 766.613L98.6106 768.478ZM105.269 763.659C104.759 763.87 104.516 764.454 104.726 764.965C104.937 765.475 105.521 765.719 106.032 765.508L105.269 763.659ZM113.328 762.408C113.834 762.187 114.065 761.598 113.844 761.091C113.622 760.586 113.033 760.355 112.527 760.576L113.328 762.408ZM119.723 757.337C119.222 757.569 119.004 758.163 119.236 758.664C119.468 759.165 120.062 759.384 120.563 759.151L119.723 757.337ZM127.878 755.666C128.374 755.423 128.579 754.823 128.336 754.328C128.092 753.832 127.493 753.627 126.997 753.87L127.878 755.666ZM134.138 750.271C133.648 750.525 133.456 751.128 133.71 751.619C133.964 752.109 134.568 752.301 135.058 752.047L134.138 750.271ZM142.105 748.297C142.59 748.032 142.768 747.424 142.503 746.939C142.239 746.455 141.631 746.277 141.146 746.541L142.105 748.297ZM148.022 742.685C147.543 742.96 147.378 743.571 147.654 744.05C147.93 744.529 148.541 744.693 149.02 744.418L148.022 742.685ZM155.917 740.342C156.389 740.056 156.54 739.441 156.254 738.969C155.967 738.497 155.352 738.346 154.88 738.632L155.917 740.342ZM161.689 734.397C161.223 734.694 161.087 735.312 161.384 735.778C161.681 736.244 162.299 736.38 162.765 736.083L161.689 734.397ZM169.473 731.695C169.931 731.387 170.054 730.766 169.746 730.307C169.438 729.848 168.817 729.726 168.358 730.034L169.473 731.695ZM174.889 725.544C174.438 725.862 174.329 726.486 174.647 726.938C174.966 727.389 175.589 727.497 176.041 727.179L174.889 725.544ZM182.475 722.536C182.92 722.208 183.014 721.582 182.685 721.138C182.357 720.693 181.731 720.599 181.287 720.928L182.475 722.536ZM187.682 716.085C187.246 716.423 187.166 717.052 187.505 717.488C187.843 717.924 188.472 718.004 188.908 717.665L187.682 716.085ZM195.196 712.669C195.624 712.321 195.689 711.691 195.341 711.263C194.992 710.834 194.362 710.77 193.934 711.118L195.196 712.669ZM200.042 706.03C199.622 706.388 199.572 707.02 199.93 707.44C200.289 707.86 200.92 707.91 201.34 707.552L200.042 706.03ZM207.341 702.315C207.753 701.947 207.789 701.315 207.421 700.903C207.053 700.491 206.421 700.456 206.009 700.824L207.341 702.315ZM211.888 695.45C211.484 695.827 211.463 696.46 211.841 696.863C212.218 697.267 212.851 697.288 213.254 696.911L211.888 695.45ZM219.057 691.356C219.451 690.969 219.458 690.336 219.071 689.942C218.685 689.547 218.052 689.54 217.657 689.927L219.057 691.356ZM223.282 684.29C222.896 684.685 222.904 685.318 223.299 685.704C223.695 686.09 224.328 686.082 224.713 685.686L223.282 684.29ZM230.224 679.905C230.601 679.501 230.578 678.868 230.174 678.492C229.77 678.115 229.138 678.138 228.761 678.542L230.224 679.905ZM234.109 672.671C233.742 673.083 233.778 673.715 234.191 674.083C234.603 674.45 235.235 674.413 235.602 674.001L234.109 672.671ZM240.873 667.946C241.231 667.526 241.18 666.894 240.759 666.536C240.338 666.179 239.707 666.229 239.349 666.65L240.873 667.946ZM244.444 660.524C244.096 660.953 244.161 661.583 244.589 661.931C245.018 662.28 245.648 662.215 245.996 661.786L244.444 660.524ZM250.973 655.524C251.312 655.088 251.233 654.459 250.797 654.121C250.361 653.782 249.733 653.861 249.394 654.297L250.973 655.524ZM254.199 647.97C253.87 648.413 253.962 649.04 254.406 649.369C254.849 649.698 255.475 649.605 255.805 649.162L254.199 647.97ZM260.511 642.675C260.831 642.224 260.724 641.6 260.274 641.281C259.823 640.961 259.199 641.068 258.88 641.518L260.511 642.675ZM263.417 634.97C263.108 635.427 263.227 636.049 263.685 636.358C264.142 636.668 264.764 636.548 265.073 636.091L263.417 634.97ZM269.49 629.416C269.79 628.952 269.657 628.333 269.193 628.033C268.73 627.733 268.111 627.866 267.811 628.33L269.49 629.416ZM272.06 621.601C271.77 622.071 271.916 622.687 272.386 622.977C272.856 623.267 273.472 623.121 273.762 622.651L272.06 621.601ZM277.893 615.796C278.173 615.32 278.015 614.708 277.539 614.427C277.063 614.147 276.45 614.306 276.17 614.782L277.893 615.796ZM280.138 607.877C279.868 608.359 280.039 608.968 280.521 609.238C281.002 609.509 281.612 609.337 281.882 608.856L280.138 607.877ZM285.727 601.835C285.988 601.348 285.804 600.742 285.317 600.481C284.83 600.221 284.224 600.405 283.964 600.892L285.727 601.835ZM287.648 593.83C287.397 594.322 287.593 594.924 288.085 595.174C288.577 595.425 289.18 595.229 289.43 594.737L287.648 593.83ZM292.989 587.567C293.23 587.07 293.022 586.472 292.525 586.232C292.028 585.991 291.429 586.199 291.189 586.696L292.989 587.567ZM294.587 579.497C294.356 579.999 294.576 580.593 295.077 580.824C295.579 581.054 296.173 580.835 296.404 580.333L294.587 579.497ZM299.678 573.03C299.899 572.524 299.668 571.935 299.162 571.714C298.656 571.493 298.066 571.724 297.845 572.23L299.678 573.03ZM300.964 564.898C300.753 565.408 300.995 565.993 301.505 566.204C302.016 566.415 302.6 566.173 302.812 565.663L300.964 564.898ZM305.806 558.233C306.008 557.719 305.754 557.139 305.24 556.937C304.726 556.736 304.146 556.989 303.944 557.503L305.806 558.233ZM306.779 550.068C306.587 550.586 306.852 551.161 307.37 551.353C307.887 551.545 308.463 551.281 308.655 550.763L306.779 550.068ZM311.366 543.236C311.548 542.715 311.273 542.144 310.752 541.962C310.231 541.78 309.66 542.054 309.478 542.576L311.366 543.236ZM312.04 535.03C311.867 535.555 312.153 536.12 312.677 536.293C313.202 536.466 313.767 536.181 313.94 535.656L312.04 535.03ZM316.377 528.026C316.541 527.498 316.245 526.938 315.718 526.775C315.19 526.612 314.63 526.907 314.467 527.434L316.377 528.026ZM316.754 519.807C316.6 520.337 316.905 520.892 317.436 521.046C317.966 521.2 318.521 520.894 318.675 520.364L316.754 519.807ZM320.835 512.664C320.98 512.131 320.665 511.581 320.132 511.437C319.599 511.292 319.05 511.607 318.905 512.14L320.835 512.664ZM320.923 504.432C320.788 504.968 321.112 505.511 321.648 505.647C322.183 505.782 322.727 505.457 322.862 504.922L320.923 504.432ZM324.756 497.142C324.882 496.604 324.548 496.066 324.01 495.94C323.472 495.814 322.934 496.148 322.808 496.686L324.756 497.142ZM324.56 488.91C324.443 489.45 324.786 489.982 325.326 490.099C325.866 490.216 326.398 489.873 326.515 489.333L324.56 488.91ZM328.14 481.503C328.247 480.961 327.896 480.435 327.354 480.327C326.812 480.22 326.286 480.571 326.178 481.113L328.14 481.503ZM327.666 473.286C327.567 473.829 327.928 474.35 328.471 474.448C329.015 474.547 329.535 474.186 329.634 473.643L327.666 473.286ZM330.997 465.756C331.087 465.211 330.718 464.697 330.173 464.607C329.628 464.518 329.113 464.887 329.024 465.432L330.997 465.756ZM330.252 457.554C330.171 458.1 330.549 458.608 331.095 458.689C331.642 458.77 332.15 458.392 332.231 457.846L330.252 457.554ZM333.334 449.923C333.405 449.376 333.02 448.874 332.472 448.802C331.924 448.73 331.422 449.116 331.351 449.664L333.334 449.923ZM332.321 441.755C332.259 442.303 332.652 442.799 333.201 442.862C333.75 442.925 334.246 442.531 334.308 441.982L332.321 441.755ZM335.155 434.026C335.209 433.476 334.808 432.987 334.258 432.933C333.708 432.879 333.219 433.28 333.165 433.83L335.155 434.026ZM333.882 425.893C333.836 426.443 334.246 426.926 334.796 426.971C335.347 427.017 335.83 426.607 335.875 426.057L333.882 425.893ZM336.468 418.075C336.504 417.524 336.087 417.048 335.536 417.011C334.985 416.975 334.509 417.392 334.472 417.943L336.468 418.075ZM334.937 409.985C334.909 410.537 335.334 411.007 335.886 411.035C336.437 411.062 336.907 410.638 336.935 410.086L334.937 409.985ZM337.276 402.093C337.295 401.541 336.863 401.078 336.311 401.059C335.759 401.04 335.296 401.471 335.277 402.023L337.276 402.093ZM335.493 394.06C335.482 394.612 335.921 395.068 336.473 395.079C337.025 395.09 337.482 394.651 337.492 394.098L335.493 394.06ZM337.584 386.098C337.586 385.545 337.14 385.096 336.587 385.094C336.035 385.092 335.586 385.538 335.584 386.09L337.584 386.098ZM335.551 378.114C335.558 378.666 336.011 379.108 336.563 379.102C337.115 379.095 337.558 378.642 337.551 378.09L335.551 378.114ZM337.395 370.089C337.379 369.537 336.92 369.102 336.368 369.117C335.815 369.132 335.38 369.592 335.395 370.144L337.395 370.089ZM335.116 362.184C335.14 362.736 335.606 363.164 336.158 363.14C336.71 363.117 337.138 362.65 337.114 362.098L335.116 362.184ZM336.711 354.118C336.679 353.567 336.206 353.146 335.655 353.178C335.104 353.21 334.683 353.683 334.715 354.234L336.711 354.118ZM334.189 346.266C334.23 346.817 334.709 347.231 335.26 347.19C335.811 347.149 336.224 346.67 336.183 346.119L334.189 346.266ZM335.533 338.139C335.484 337.589 334.998 337.183 334.448 337.232C333.898 337.281 333.491 337.767 333.541 338.317L335.533 338.139ZM332.771 330.389C332.828 330.938 333.32 331.337 333.87 331.279C334.419 331.222 334.817 330.73 334.76 330.18L332.771 330.389ZM333.865 322.246C333.799 321.698 333.301 321.307 332.752 321.373C332.204 321.439 331.813 321.938 331.879 322.486L333.865 322.246ZM330.862 314.568C330.936 315.115 331.44 315.498 331.988 315.423C332.535 315.349 332.918 314.844 332.843 314.297L330.862 314.568ZM331.698 306.366C331.615 305.82 331.105 305.444 330.559 305.528C330.013 305.611 329.637 306.121 329.721 306.667L331.698 306.366ZM328.458 298.8C328.55 299.345 329.066 299.712 329.611 299.62C330.155 299.528 330.522 299.012 330.431 298.468L328.458 298.8ZM329.042 290.607C328.942 290.063 328.42 289.705 327.877 289.805C327.334 289.905 326.975 290.427 327.076 290.97L329.042 290.607ZM325.566 283.143C325.674 283.685 326.202 284.035 326.743 283.926C327.285 283.817 327.635 283.29 327.526 282.749L325.566 283.143ZM325.881 274.896C325.763 274.356 325.23 274.014 324.691 274.132C324.151 274.249 323.809 274.782 323.927 275.322L325.881 274.896ZM322.167 267.547C322.293 268.084 322.831 268.418 323.369 268.291C323.906 268.165 324.24 267.627 324.114 267.089L322.167 267.547ZM322.225 259.332C322.091 258.797 321.547 258.472 321.011 258.607C320.476 258.742 320.151 259.286 320.286 259.821L322.225 259.332ZM318.28 252.125C318.423 252.659 318.972 252.975 319.505 252.831C320.039 252.687 320.354 252.138 320.211 251.605L318.28 252.125ZM318.055 243.865C317.903 243.334 317.349 243.027 316.818 243.18C316.287 243.333 315.981 243.887 316.133 244.417L318.055 243.865ZM313.866 236.77C314.027 237.298 314.586 237.595 315.114 237.434C315.642 237.272 315.94 236.713 315.778 236.185L313.866 236.77ZM313.379 228.568C313.209 228.043 312.645 227.755 312.12 227.926C311.594 228.096 311.307 228.66 311.477 229.185L313.379 228.568ZM308.966 221.661C309.145 222.183 309.714 222.461 310.236 222.282C310.758 222.102 311.037 221.534 310.857 221.011L308.966 221.661ZM308.178 213.424C307.99 212.905 307.416 212.637 306.897 212.826C306.378 213.014 306.11 213.588 306.299 214.107L308.178 213.424ZM303.509 206.628C303.707 207.144 304.285 207.402 304.801 207.204C305.316 207.006 305.574 206.428 305.377 205.912L303.509 206.628ZM302.452 198.479C302.246 197.967 301.663 197.719 301.151 197.926C300.639 198.133 300.391 198.716 300.598 199.228L302.452 198.479ZM297.566 191.909C297.782 192.417 298.369 192.654 298.877 192.438C299.385 192.222 299.622 191.635 299.406 191.127L297.566 191.909ZM296.19 183.749C295.964 183.245 295.373 183.019 294.868 183.245C294.364 183.47 294.138 184.062 294.364 184.566L296.19 183.749ZM291.035 177.307C291.27 177.806 291.866 178.021 292.366 177.786C292.866 177.551 293.08 176.956 292.845 176.456L291.035 177.307ZM289.377 169.257C289.133 168.762 288.533 168.558 288.038 168.803C287.543 169.047 287.34 169.647 287.584 170.142L289.377 169.257ZM284.01 163.076C284.265 163.567 284.868 163.758 285.358 163.504C285.849 163.25 286.04 162.647 285.786 162.156L284.01 163.076ZM282.014 155.049C281.75 154.564 281.143 154.384 280.658 154.648C280.173 154.912 279.993 155.519 280.257 156.004L282.014 155.049ZM276.371 149.027C276.645 149.507 277.255 149.674 277.735 149.4C278.215 149.126 278.382 148.516 278.108 148.036L276.371 149.027ZM274.077 141.135C273.793 140.661 273.179 140.507 272.705 140.79C272.231 141.074 272.077 141.688 272.36 142.162L274.077 141.135ZM268.226 135.413C268.52 135.881 269.137 136.022 269.605 135.729C270.073 135.436 270.214 134.818 269.921 134.351L268.226 135.413ZM265.57 127.578C265.266 127.117 264.646 126.989 264.185 127.293C263.724 127.596 263.596 128.216 263.899 128.678L265.57 127.578ZM259.437 122.057C259.751 122.512 260.374 122.626 260.828 122.312C261.283 121.998 261.397 121.376 261.083 120.921L259.437 122.057ZM256.469 114.396C256.145 113.948 255.52 113.848 255.073 114.172C254.625 114.496 254.525 115.121 254.849 115.569L256.469 114.396ZM250.136 109.216C250.471 109.656 251.098 109.741 251.538 109.407C251.977 109.073 252.063 108.446 251.729 108.006L250.136 109.216ZM246.778 101.649C246.433 101.218 245.804 101.147 245.373 101.492C244.941 101.836 244.87 102.465 245.215 102.897L246.778 101.649ZM240.163 96.7238C240.518 97.1469 241.149 97.2022 241.572 96.8472C241.995 96.4923 242.051 95.8615 241.696 95.4384L240.163 96.7238ZM236.485 89.3804C236.119 88.9662 235.487 88.9266 235.073 89.2919C234.659 89.6572 234.619 90.2892 234.985 90.7033L236.485 89.3804ZM229.67 84.8283C230.045 85.2331 230.678 85.2567 231.083 84.881C231.488 84.5053 231.511 83.8726 231.135 83.4678L229.67 84.8283ZM225.583 77.6389C225.196 77.2441 224.563 77.237 224.168 77.6232C223.774 78.0094 223.767 78.6425 224.153 79.0373L225.583 77.6389ZM218.507 73.4164C218.904 73.8008 219.537 73.7909 219.922 73.3944C220.306 72.9978 220.296 72.3648 219.9 71.9803L218.507 73.4164ZM214.087 66.4964C213.68 66.1229 213.048 66.1499 212.674 66.5568C212.301 66.9636 212.328 67.5962 212.735 67.9697L214.087 66.4964ZM206.811 62.6809C207.228 63.043 207.86 62.9984 208.222 62.5813C208.584 62.1642 208.539 61.5326 208.122 61.1706L206.811 62.6809ZM201.98 55.9894C201.552 55.6394 200.922 55.702 200.572 56.1292C200.222 56.5564 200.285 57.1865 200.712 57.5365L201.98 55.9894ZM194.485 52.5836C194.922 52.921 195.55 52.8402 195.888 52.403C196.225 51.9658 196.144 51.3378 195.707 51.0004L194.485 52.5836ZM189.306 46.2079C188.859 45.8835 188.233 45.9828 187.909 46.4298C187.585 46.8768 187.684 47.5021 188.131 47.8265L189.306 46.2079ZM181.627 43.2535C182.083 43.5643 182.705 43.4461 183.016 42.9896C183.327 42.533 183.209 41.911 182.752 41.6002L181.627 43.2535ZM176.053 37.1887C175.587 36.8921 174.969 37.0293 174.673 37.4951C174.376 37.961 174.513 38.5791 174.979 38.8758L176.053 37.1887ZM168.205 34.7095C168.68 34.9915 169.294 34.8351 169.576 34.3602C169.858 33.8853 169.701 33.2718 169.226 32.9898L168.205 34.7095ZM162.273 29.0081C161.789 28.7413 161.181 28.9171 160.914 29.4006C160.647 29.8842 160.823 30.4925 161.306 30.7593L162.273 29.0081ZM154.294 27.035C154.786 27.2862 155.388 27.0911 155.639 26.5993C155.891 26.1074 155.696 25.5051 155.204 25.2539L154.294 27.035ZM148.012 21.726C147.512 21.4908 146.916 21.7053 146.681 22.205C146.446 22.7048 146.66 23.3005 147.16 23.5356L148.012 21.726ZM139.904 20.2647C140.411 20.4834 141 20.2496 141.218 19.7424C141.437 19.2353 141.203 18.6469 140.696 18.4282L139.904 20.2647ZM133.269 15.3696C132.755 15.1677 132.175 15.4208 131.973 15.9349C131.771 16.449 132.024 17.0294 132.538 17.2312L133.269 15.3696ZM125.128 14.4612C125.649 14.6461 126.221 14.374 126.405 13.8536C126.59 13.3331 126.318 12.7614 125.798 12.5766L125.128 14.4612ZM118.208 10.0214C117.682 9.85392 117.119 10.1447 116.952 10.671C116.784 11.1973 117.075 11.7597 117.601 11.9272L118.208 10.0214ZM109.958 9.63347C110.49 9.7834 111.042 9.47404 111.192 8.94249C111.342 8.41095 111.033 7.8585 110.501 7.70858L109.958 9.63347ZM102.743 5.65844C102.207 5.52619 101.665 5.85366 101.533 6.38988C101.401 6.9261 101.728 7.468 102.264 7.60025L102.743 5.65844ZM94.5733 5.83625C95.1135 5.95091 95.6444 5.6059 95.7591 5.06565C95.8738 4.5254 95.5288 3.99449 94.9885 3.87983L94.5733 5.83625ZM87.1246 2.34482C86.5808 2.24788 86.0615 2.61005 85.9645 3.15376C85.8676 3.69747 86.2298 4.21682 86.7735 4.31377L87.1246 2.34482ZM78.8656 3.03683C79.4122 3.11597 79.9194 2.73704 79.9986 2.19045C80.0777 1.64387 79.6988 1.13661 79.1522 1.05747L78.8656 3.03683ZM1.63349 792.991C2.99282 792.808 4.34769 792.62 5.6981 792.426L5.41406 790.446C4.06935 790.639 2.72017 790.827 1.36651 791.009L1.63349 792.991ZM13.7471 791.2C16.4123 790.77 19.0597 790.32 21.6894 789.848L21.3365 787.88C18.7184 788.349 16.0825 788.798 13.4288 789.225L13.7471 791.2ZM29.5253 788.372C32.1195 787.859 34.6961 787.326 37.255 786.773L36.8324 784.818C34.2852 785.369 31.7202 785.9 29.1376 786.41L29.5253 788.372ZM44.9419 785.038C47.6005 784.413 50.2395 783.765 52.859 783.095L52.3637 781.158C49.7566 781.824 47.13 782.469 44.4838 783.091L44.9419 785.038ZM60.6592 781.021C63.2398 780.308 65.8011 779.574 68.3429 778.818L67.7729 776.901C65.2435 777.653 62.6948 778.384 60.1266 779.094L60.6592 781.021ZM75.9105 776.487C78.4233 775.685 80.9166 774.863 83.3905 774.02L82.7453 772.127C80.284 772.966 77.8032 773.784 75.303 774.581L75.9105 776.487ZM91.0636 771.316C93.6003 770.392 96.1159 769.446 98.6106 768.478L97.8871 766.613C95.4054 767.576 92.9028 768.518 90.3792 769.437L91.0636 771.316ZM106.032 765.508C108.485 764.496 110.917 763.463 113.328 762.408L112.527 760.576C110.128 761.625 107.709 762.653 105.269 763.659L106.032 765.508ZM120.563 759.151C123.024 758.012 125.462 756.85 127.878 755.666L126.997 753.87C124.595 755.048 122.17 756.203 119.723 757.337L120.563 759.151ZM135.058 752.047C137.43 750.818 139.779 749.568 142.105 748.297L141.146 746.541C138.833 747.806 136.497 749.049 134.138 750.271L135.058 752.047ZM149.02 744.418C151.341 743.081 153.641 741.722 155.917 740.342L154.88 738.632C152.617 740.004 150.331 741.355 148.022 742.685L149.02 744.418ZM162.765 736.083C165.024 734.642 167.26 733.179 169.473 731.695L168.358 730.034C166.158 731.509 163.935 732.964 161.689 734.397L162.765 736.083ZM176.041 727.179C178.209 725.652 180.354 724.104 182.475 722.536L181.287 720.928C179.177 722.487 177.045 724.026 174.889 725.544L176.041 727.179ZM188.908 717.665C191.028 716.021 193.124 714.355 195.196 712.669L193.934 711.118C191.874 712.794 189.79 714.45 187.682 716.085L188.908 717.665ZM201.34 707.552C203.364 705.826 205.365 704.08 207.341 702.315L206.009 700.824C204.044 702.579 202.055 704.314 200.042 706.03L201.34 707.552ZM213.254 696.911C215.213 695.078 217.147 693.227 219.057 691.356L217.657 689.927C215.758 691.787 213.835 693.628 211.888 695.45L213.254 696.911ZM224.713 685.686C226.575 683.778 228.412 681.85 230.224 679.905L228.761 678.542C226.959 680.476 225.132 682.392 223.282 684.29L224.713 685.686ZM235.602 674.001C237.384 672 239.14 669.982 240.873 667.946L239.349 666.65C237.627 668.675 235.88 670.682 234.109 672.671L235.602 674.001ZM245.996 661.786C247.68 659.716 249.339 657.628 250.973 655.524L249.394 654.297C247.768 656.389 246.118 658.465 244.444 660.524L245.996 661.786ZM255.805 649.162C257.398 647.016 258.967 644.853 260.511 642.675L258.88 641.518C257.344 643.685 255.783 645.835 254.199 647.97L255.805 649.162ZM265.073 636.091C266.57 633.881 268.042 631.656 269.49 629.416L267.811 628.33C266.37 630.558 264.906 632.771 263.417 634.97L265.073 636.091ZM273.762 622.651C275.163 620.381 276.54 618.095 277.893 615.796L276.17 614.782C274.824 617.069 273.454 619.342 272.06 621.601L273.762 622.651ZM281.882 608.856C283.188 606.528 284.469 604.188 285.727 601.835L283.964 600.892C282.712 603.233 281.437 605.562 280.138 607.877L281.882 608.856ZM289.43 594.737C290.64 592.359 291.826 589.969 292.989 587.567L291.189 586.696C290.032 589.086 288.851 591.464 287.648 593.83L289.43 594.737ZM296.404 580.333C297.518 577.91 298.61 575.476 299.678 573.03L297.845 572.23C296.782 574.663 295.696 577.086 294.587 579.497L296.404 580.333ZM302.812 565.663C303.833 563.196 304.831 560.72 305.806 558.233L303.944 557.503C302.974 559.978 301.98 562.443 300.964 564.898L302.812 565.663ZM308.655 550.763C309.581 548.263 310.485 545.754 311.366 543.236L309.478 542.576C308.601 545.082 307.702 547.58 306.779 550.068L308.655 550.763ZM313.94 535.656C314.775 533.121 315.588 530.577 316.377 528.026L314.467 527.434C313.681 529.974 312.872 532.507 312.04 535.03L313.94 535.656ZM318.675 520.364C319.417 517.804 320.137 515.237 320.835 512.664L318.905 512.14C318.21 514.703 317.493 517.258 316.754 519.807L318.675 520.364ZM322.862 504.922C323.516 502.335 324.147 499.741 324.756 497.142L322.808 496.686C322.202 499.274 321.574 501.856 320.923 504.432L322.862 504.922ZM326.515 489.333C327.078 486.728 327.62 484.118 328.14 481.503L326.178 481.113C325.66 483.717 325.121 486.317 324.56 488.91L326.515 489.333ZM329.634 473.643C330.11 471.018 330.564 468.389 330.997 465.756L329.024 465.432C328.593 468.054 328.14 470.672 327.666 473.286L329.634 473.643ZM332.231 457.846C332.62 455.208 332.987 452.567 333.334 449.923L331.351 449.664C331.006 452.297 330.64 454.927 330.252 457.554L332.231 457.846ZM334.308 441.982C334.612 439.333 334.894 436.68 335.155 434.026L333.165 433.83C332.905 436.474 332.624 439.116 332.321 441.755L334.308 441.982ZM335.875 426.057C336.094 423.398 336.291 420.737 336.468 418.075L334.472 417.943C334.296 420.594 334.099 423.244 333.882 425.893L335.875 426.057ZM336.935 410.086C337.069 407.423 337.183 404.758 337.276 402.093L335.277 402.023C335.185 404.678 335.071 407.332 334.937 409.985L336.935 410.086ZM337.492 394.098C337.543 391.431 337.574 388.764 337.584 386.098L335.584 386.09C335.574 388.746 335.544 391.403 335.493 394.06L337.492 394.098ZM337.551 378.09C337.52 375.422 337.467 372.754 337.395 370.089L335.395 370.144C335.468 372.799 335.52 375.456 335.551 378.114L337.551 378.09ZM337.114 362.098C337.001 359.436 336.866 356.776 336.711 354.118L334.715 354.234C334.869 356.882 335.003 359.532 335.116 362.184L337.114 362.098ZM336.183 346.119C335.987 343.456 335.77 340.795 335.533 338.139L333.541 338.317C333.777 340.963 333.993 343.613 334.189 346.266L336.183 346.119ZM334.76 330.18C334.482 327.531 334.183 324.887 333.865 322.246L331.879 322.486C332.197 325.116 332.494 327.75 332.771 330.389L334.76 330.18ZM332.843 314.297C332.482 311.648 332.1 309.004 331.698 306.366L329.721 306.667C330.121 309.295 330.502 311.929 330.862 314.568L332.843 314.297ZM330.431 298.468C329.988 295.841 329.525 293.22 329.042 290.607L327.076 290.97C327.557 293.573 328.018 296.184 328.458 298.8L330.431 298.468ZM327.526 282.749C326.998 280.124 326.45 277.506 325.881 274.896L323.927 275.322C324.493 277.921 325.039 280.529 325.566 283.143L327.526 282.749ZM324.114 267.089C323.504 264.495 322.875 261.909 322.225 259.332L320.286 259.821C320.933 262.388 321.56 264.963 322.167 267.547L324.114 267.089ZM320.211 251.605C319.513 249.015 318.794 246.435 318.055 243.865L316.133 244.417C316.869 246.977 317.584 249.546 318.28 252.125L320.211 251.605ZM315.778 236.185C314.999 233.635 314.199 231.096 313.379 228.568L311.477 229.185C312.293 231.703 313.089 234.231 313.866 236.77L315.778 236.185ZM310.857 221.011C309.985 218.47 309.092 215.941 308.178 213.424L306.299 214.107C307.208 216.612 308.097 219.13 308.966 221.661L310.857 221.011ZM305.377 205.912C304.422 203.421 303.447 200.943 302.452 198.479L300.598 199.228C301.588 201.681 302.559 204.148 303.509 206.628L305.377 205.912ZM299.406 191.127C298.355 188.653 297.283 186.193 296.19 183.749L294.364 184.566C295.452 186.999 296.519 189.447 297.566 191.909L299.406 191.127ZM292.845 176.456C291.71 174.04 290.554 171.64 289.377 169.257L287.584 170.142C288.755 172.514 289.905 174.903 291.035 177.307L292.845 176.456ZM285.786 162.156C284.55 159.77 283.293 157.4 282.014 155.049L280.257 156.004C281.529 158.344 282.78 160.701 284.01 163.076L285.786 162.156ZM278.108 148.036C276.785 145.717 275.441 143.416 274.077 141.135L272.36 142.162C273.718 144.431 275.055 146.72 276.371 149.027L278.108 148.036ZM269.921 134.351C268.492 132.072 267.041 129.815 265.57 127.578L263.899 128.678C265.363 130.902 266.805 133.147 268.226 135.413L269.921 134.351ZM261.083 120.921C259.566 118.724 258.028 116.548 256.469 114.396L254.849 115.569C256.399 117.709 257.929 119.872 259.437 122.057L261.083 120.921ZM251.729 108.006C250.1 105.863 248.45 103.744 246.778 101.649L245.215 102.897C246.877 104.979 248.517 107.085 250.136 109.216L251.729 108.006ZM241.696 95.4384C239.98 93.3934 238.243 91.3738 236.485 89.3804L234.985 90.7033C236.732 92.6843 238.458 94.6913 240.163 96.7238L241.696 95.4384ZM231.135 83.4678C229.306 81.4969 227.455 79.5537 225.583 77.6389L224.153 79.0373C226.013 80.9396 227.852 82.8701 229.67 84.8283L231.135 83.4678ZM219.9 71.9803C217.984 70.123 216.046 68.2948 214.087 66.4964L212.735 67.9697C214.68 69.7557 216.604 71.5715 218.507 73.4164L219.9 71.9803ZM208.122 61.1706C206.096 59.412 204.049 57.6847 201.98 55.9894L200.712 57.5365C202.767 59.2196 204.8 60.9347 206.811 62.6809L208.122 61.1706ZM195.707 51.0004C193.595 49.3698 191.461 47.7721 189.306 46.2079L188.131 47.8265C190.27 49.3791 192.388 50.965 194.485 52.5836L195.707 51.0004ZM182.752 41.6002C180.541 40.0948 178.308 38.624 176.053 37.1887L174.979 38.8758C177.216 40.3 179.432 41.7595 181.627 43.2535L182.752 41.6002ZM169.226 32.9898C166.93 31.6261 164.612 30.2987 162.273 29.0081L161.306 30.7593C163.627 32.0396 165.927 33.3565 168.205 34.7095L169.226 32.9898ZM155.204 25.2539C152.827 24.0401 150.43 22.8639 148.012 21.726L147.16 23.5356C149.559 24.6643 151.937 25.831 154.294 27.035L155.204 25.2539ZM140.696 18.4282C138.241 17.3694 135.765 16.3497 133.269 15.3696L132.538 17.2312C135.014 18.2032 137.469 19.2146 139.904 20.2647L140.696 18.4282ZM125.798 12.5766C123.287 11.685 120.758 10.833 118.208 10.0214L117.601 11.9272C120.13 12.7321 122.639 13.577 125.128 14.4612L125.798 12.5766ZM110.501 7.70858C107.934 6.98454 105.348 6.30092 102.743 5.65844L102.264 7.60025C104.848 8.23744 107.412 8.91542 109.958 9.63347L110.501 7.70858ZM94.9885 3.87983C92.3854 3.32733 89.764 2.81544 87.1246 2.34482L86.7735 4.31377C89.3915 4.78056 91.9914 5.28828 94.5733 5.83625L94.9885 3.87983ZM79.1522 1.05747C77.815 0.863846 76.4733 0.680701 75.1272 0.508118L74.8728 2.49188C76.2082 2.66308 77.5391 2.84476 78.8656 3.03683L79.1522 1.05747Z" fill="white"/>
</svg>
