<svg width="491" height="147" viewBox="0 0 491 147" fill="none" xmlns="http://www.w3.org/2000/svg">
<g clip-path="url(#clip0_405_57)">
<path d="M62.7751 135.434C61.9928 135.434 61.3347 135.695 60.8009 136.215C60.2672 136.737 60 137.397 60 138.196C60 139.016 60.2603 139.688 60.7804 140.213C61.301 140.737 61.9657 141 62.7747 141C63.5837 141 64.2485 140.739 64.769 140.218C65.2892 139.696 65.5495 139.023 65.5495 138.196C65.5495 137.397 65.2845 136.737 64.754 136.215C64.224 135.695 63.564 135.434 62.7751 135.434ZM63.8345 139.349C63.5724 139.644 63.2191 139.792 62.7751 139.792C62.3311 139.792 61.9778 139.644 61.7157 139.349C61.4536 139.055 61.3226 138.681 61.3226 138.227C61.3226 137.767 61.4533 137.387 61.7157 137.089C61.9778 136.791 62.3311 136.643 62.7751 136.643C63.2257 136.643 63.5804 136.79 63.8392 137.085C64.0977 137.379 64.2273 137.76 64.2273 138.227C64.2273 138.681 64.0959 139.055 63.8345 139.349ZM87.7372 135.596H92.2028V140.857H90.9098V136.683H89.0301V140.857H87.7372V135.596ZM114.728 135.596H118.408V136.693H117.214V140.858H115.921V136.693H114.728V135.596ZM144.321 135.596H145.485V140.857H144.192V137.503L141.942 140.857H140.781V135.596H142.073V138.877L144.321 135.596ZM170.813 138.144L172.794 140.858H171.262L169.532 138.278V140.858H168.259V135.596H169.532V138.024L171.322 135.596H172.754L170.813 138.144ZM198.709 136.165C198.337 135.684 197.804 135.443 197.107 135.443C196.352 135.443 195.735 135.711 195.257 136.246C194.78 136.781 194.542 137.438 194.542 138.217C194.542 139.002 194.783 139.663 195.266 140.198C195.749 140.733 196.37 141 197.13 141C197.816 141 198.356 140.746 198.749 140.238V140.858H200.002V135.596H198.709V136.165V136.165ZM198.311 139.344C198.019 139.662 197.671 139.822 197.267 139.822C196.849 139.822 196.499 139.661 196.218 139.339C195.936 139.018 195.795 138.644 195.795 138.217C195.795 137.784 195.93 137.411 196.203 137.1C196.474 136.788 196.823 136.632 197.247 136.632C197.677 136.632 198.036 136.789 198.321 137.105C198.606 137.42 198.748 137.8 198.748 138.247C198.749 138.66 198.602 139.026 198.311 139.344ZM230.989 137.519C230.955 137.413 230.938 137.307 230.903 137.218C230.385 135.859 229.868 134.501 229.247 133.195C228.746 132.153 228.211 131.112 227.694 130.088C226.676 128.094 225.554 126.188 224.225 124.388C223.414 123.293 222.552 122.252 221.551 121.334C221.05 120.876 220.516 120.434 220.015 119.958C219.239 119.234 218.583 118.387 218.238 117.363C218.014 116.746 217.876 116.093 217.738 115.457C217.496 114.292 217.237 113.127 216.858 112.015C216.098 109.827 215.132 107.727 214.062 105.891C213.217 104.373 212.389 103.05 211.474 101.796C210.715 100.755 209.939 99.7315 209.162 98.7078C209.007 98.4959 208.8 98.3019 208.61 98.1076C208.524 98.0016 208.385 97.9664 208.247 98.0368C207.609 98.4075 206.953 98.7606 206.298 99.1133C206.194 99.1661 206.125 99.2545 206.022 99.3252C205.953 99.378 205.918 99.4664 205.935 99.5723C205.953 99.6783 205.953 99.7839 205.953 99.8898C205.901 100.402 205.625 100.79 205.314 101.161C205.107 101.425 204.848 101.655 204.607 101.902C204.469 102.061 204.331 102.237 204.175 102.379C203.451 103.067 202.709 103.738 201.984 104.426C201.294 105.097 200.655 105.785 200.138 106.614C199.568 107.532 199.309 108.521 199.448 109.615C199.517 110.268 199.707 110.903 199.931 111.521C200.04 111.814 200.162 112.102 200.291 112.386H197.619L190.544 119.481V112.387H188.163V129.789H190.544V122.394L197.757 129.789H200.587L192.166 120.999L200.389 112.589C200.73 113.307 201.123 113.998 201.553 114.663C202.225 115.652 202.95 116.587 203.813 117.416C204.451 118.034 205.159 118.546 205.987 118.846C207.264 119.305 208.575 119.517 209.921 119.464C211.267 119.411 212.596 119.164 213.907 118.864C214.286 118.775 214.649 118.687 215.028 118.617C215.598 118.511 216.064 118.687 216.426 119.146C216.547 119.287 216.65 119.446 216.736 119.623C216.926 120.011 217.047 120.417 216.874 120.858C216.805 121.052 216.719 121.229 216.598 121.405C216.374 121.723 216.132 122.023 215.874 122.323C214.752 123.576 213.768 124.935 212.958 126.418C212.268 127.653 211.888 128.959 211.922 130.371C211.957 131.377 212.147 132.347 212.474 133.301C212.958 134.712 213.613 136.054 214.407 137.307C214.89 138.083 215.425 138.807 216.063 139.425C216.736 140.06 217.495 140.537 218.41 140.66C218.997 140.748 219.601 140.731 220.187 140.642C221.43 140.466 222.637 140.13 223.845 139.742C224.432 139.566 225.019 139.371 225.605 139.195C225.916 139.107 226.227 139.036 226.537 138.948C226.83 138.878 227.124 138.789 227.434 138.824C227.745 138.86 228.055 138.895 228.297 139.124C228.401 139.213 228.521 139.23 228.642 139.177C228.746 139.159 228.832 139.124 228.918 139.071C229.315 138.842 229.695 138.612 230.074 138.383C230.333 138.207 230.592 138.012 230.851 137.836C230.972 137.766 231.024 137.66 230.989 137.519ZM207.816 99.4327C207.92 99.3799 208.196 99.6622 208.42 100.086C208.662 100.509 208.783 100.915 208.679 100.968C208.575 101.021 208.299 100.739 208.058 100.315C207.816 99.8913 207.713 99.5031 207.816 99.4327ZM215.84 114.858C215.754 115.37 215.46 115.775 215.081 116.093C214.287 116.781 213.355 117.205 212.372 117.505C211.095 117.894 209.801 118.07 208.472 118.07C207.747 118.07 207.04 117.999 206.35 117.788C205.418 117.505 204.659 116.976 204.003 116.287C202.657 114.875 201.605 113.287 200.897 111.452C200.759 111.099 200.673 110.728 200.569 110.357C200.362 109.581 200.448 108.857 200.793 108.133C201.173 107.339 201.708 106.686 202.329 106.086C203.14 105.292 204.02 104.603 204.935 103.933C205.452 103.545 206.022 103.227 206.608 102.98C206.901 102.839 207.195 102.698 207.505 102.609C208.61 102.256 209.576 102.503 210.387 103.351C211.129 104.11 211.785 104.957 212.389 105.839C212.82 106.492 213.234 107.163 213.51 107.604C214.39 109.192 215.046 110.587 215.495 112.069C215.667 112.67 215.874 113.269 215.892 113.905C215.892 114.222 215.892 114.54 215.84 114.858ZM227.314 135.26C227.142 135.542 226.969 135.825 226.762 136.072C226.52 136.372 226.21 136.601 225.882 136.795C225.381 137.131 224.864 137.466 224.346 137.748C222.983 138.507 221.534 139.054 219.98 139.319C219.359 139.425 218.738 139.425 218.117 139.249C217.427 139.054 216.892 138.631 216.391 138.119C215.77 137.484 215.287 136.742 214.838 135.966C214.166 134.801 213.665 133.565 213.251 132.277C212.854 131.006 212.923 129.771 213.389 128.535C213.993 126.947 214.942 125.605 216.15 124.441C216.719 123.911 217.289 123.399 217.962 123.029C218.255 122.852 218.566 122.728 218.876 122.605C219.652 122.323 220.36 122.499 221.016 123.011C221.654 123.523 222.206 124.123 222.741 124.741C223.345 125.446 223.897 126.17 224.398 126.947C224.795 127.547 225.174 128.165 225.416 128.57C226.296 130.3 227.003 131.835 227.4 133.494C227.469 133.794 227.504 134.112 227.521 134.429C227.556 134.73 227.487 135.013 227.314 135.26ZM229.35 137.59C229.247 137.642 228.971 137.342 228.729 136.937C228.487 136.513 228.384 136.107 228.487 136.054C228.574 136.001 228.85 136.284 229.091 136.707C229.333 137.131 229.454 137.519 229.35 137.59ZM76.8864 120.911L82.7013 129.824H80.0096L75.5408 122.906L71.0371 129.824H68.3283L74.1259 120.911L68.6562 112.404H71.3479L75.5408 118.846L79.682 112.404H82.3565L76.8864 120.911ZM93.5546 113.305C93.037 112.969 92.4158 112.74 91.7258 112.599C91.0182 112.475 90.121 112.404 89.0169 112.404C85.8937 112.404 83.9785 112.404 83.9785 112.404C83.9785 124 83.9785 129.806 83.9785 129.806H86.3597V122.764H89.2929C90.449 122.764 91.3634 122.694 92.071 122.517C92.761 122.341 93.365 122.058 93.8826 121.67C94.435 121.264 94.849 120.717 95.1422 120.011C95.4358 119.323 95.591 118.546 95.591 117.664C95.591 116.658 95.4186 115.776 95.0562 115.034C94.7107 114.275 94.2102 113.693 93.5546 113.305ZM89.1894 120.647H86.3597V114.505H88.4473C91.0874 114.505 93.3478 114.222 93.3478 117.646C93.3478 120.593 91.605 120.647 89.1894 120.647ZM106.72 112.404H109.222L101.906 129.806H99.4211L101.371 125.2L95.9875 112.404H98.4723L102.614 122.341L106.72 112.404ZM137.002 114.328C137.002 114.328 135.708 114.328 133.103 114.328C133.103 114.328 133.103 119.252 133.103 129.806C133.103 129.806 131.843 129.806 130.704 129.806C130.704 129.806 130.704 124.882 130.704 114.328C130.704 114.328 129.41 114.328 126.822 114.328C126.822 114.328 126.822 113.446 126.822 112.404C126.822 112.404 130.67 112.404 137.002 112.404C137.002 112.404 137.002 113.269 137.002 114.328ZM142.886 112.369L135.587 129.789H138.072L140.384 124.088H147.959L150.254 129.789H152.825L145.491 112.369C145.491 112.369 142.886 112.369 142.886 112.369ZM141.385 121.988L144.197 115.052L146.959 121.988H141.385ZM123.526 125.235H126.011C124.544 128.165 121.542 130.212 118.126 130.212C113.225 130.212 109.257 126.153 109.257 121.158C109.257 116.146 113.225 112.087 118.126 112.087C121.525 112.087 124.475 114.046 125.959 116.923H123.423C122.181 115.317 120.265 114.275 118.126 114.275C114.416 114.275 111.396 117.364 111.396 121.158C111.396 124.953 114.416 128.024 118.126 128.024C120.317 128.024 122.301 126.912 123.526 125.235ZM170.529 129.789H167.992L161.918 115.052L155.81 129.789H153.291L160.624 112.369H163.195L170.529 129.789ZM183.47 112.387H186.04V129.789H183.642V116.216L174.359 129.788H171.805V112.387H174.186V125.977L183.47 112.387Z" fill="white"/>
</g>
<g clip-path="url(#clip1_405_57)">
<path d="M287.565 105.649C287.565 113.178 281.385 119.298 273.782 119.298C266.18 119.298 260 113.178 260 105.649C260 102.175 261.308 99.0121 263.472 96.5993L269.438 101.927C268.56 102.925 268.038 104.22 268.038 105.635C268.038 108.777 270.61 111.324 273.782 111.324C276.955 111.324 279.527 108.777 279.527 105.635C279.527 102.508 276.955 99.9532 273.782 99.9532V92C281.385 92 287.565 98.1205 287.565 105.649ZM336.336 118.626V99.5711H343.967V92.8349H320.074V99.5782H327.705V118.633H336.336V118.626ZM365.816 105.253V118.626H374.439V92.8349H366.187L357.22 106.251V92.8349H348.582V118.626H356.885L365.816 105.253ZM427.869 118.626L426.118 114.133H416.223L414.472 118.626H406.656H405.541H396.76L391.773 109.3H389.315V118.626H380.534V92.8349H389.315V102.451H391.994L397.539 92.8349H406.691L398.954 105.359L406.027 117.536L416.93 92.8349H425.554L436.936 118.626H427.869ZM423.711 107.864L421.181 101.375L418.645 107.864H418.652H423.711ZM290.837 118.626H299.461V99.5711H307.392V118.626H316.016V92.8349H290.837V118.626ZM434.335 134.695C433.299 134.179 432.134 134.334 431.055 135.134C429.005 136.662 427.469 138.75 426.626 140.045C426.704 140.519 426.74 141.007 426.74 141.488C426.74 141.637 426.74 141.778 426.733 141.927C426.79 141.877 426.847 141.821 426.89 141.75C426.911 141.714 428.805 138.198 431.72 136.018C432.227 135.629 433.02 135.275 433.849 135.679C434.835 136.174 435.9 137.837 435.9 141.042C435.9 141.339 436.143 141.587 436.45 141.587C436.757 141.587 437 141.346 437 141.042C437.007 137.893 436.007 135.516 434.335 134.695ZM426.061 141.481C426.061 143.455 425.34 145.139 424.075 146.123C423.017 146.943 421.653 147.198 420.224 146.851C416.916 146.038 414.215 142.238 414.215 138.396C414.215 136.422 414.937 134.738 416.201 133.754C417.259 132.94 418.623 132.679 420.052 133.025C423.36 133.839 426.061 137.639 426.061 141.481ZM423.096 140.971C421.417 140.568 418.595 139.889 417.052 138.948C416.787 138.792 416.458 138.87 416.301 139.132C416.144 139.394 416.223 139.719 416.48 139.875C418.045 140.823 420.481 141.46 422.839 142.033V142.026C423.132 142.096 423.432 141.92 423.503 141.629C423.575 141.339 423.389 141.035 423.096 140.971ZM409.892 135.976C409.892 137.943 409.171 139.634 407.906 140.618C406.849 141.438 405.484 141.693 404.055 141.346C400.747 140.533 398.046 136.733 398.046 132.891C398.046 130.924 398.768 129.233 400.032 128.249C401.09 127.428 402.455 127.174 403.884 127.52C407.206 128.334 409.892 132.127 409.892 135.976ZM407.07 135.375C406.084 135.134 404.998 134.794 403.976 134.405C403.869 132.969 403.819 131.624 403.862 130.627C403.869 130.329 403.641 130.075 403.333 130.054C403.033 130.046 402.776 130.273 402.769 130.577C402.733 131.532 402.769 132.707 402.847 133.931C402.154 133.634 401.526 133.308 401.04 133.018C400.775 132.863 400.447 132.94 400.29 133.195C400.132 133.457 400.211 133.782 400.475 133.938C401.19 134.377 402.062 134.78 402.962 135.148C403.09 136.492 403.255 137.83 403.433 138.905C403.483 139.203 403.769 139.408 404.069 139.358C404.369 139.309 404.569 139.026 404.519 138.728C404.355 137.738 404.219 136.655 404.112 135.58C405.091 135.926 406.056 136.217 406.841 136.415C407.134 136.485 407.435 136.309 407.506 136.018C407.577 135.728 407.399 135.431 407.106 135.36L407.07 135.375ZM410.078 125.971C410.821 125.419 411.586 125.313 412.279 125.652C413.308 126.169 414.401 127.839 414.401 131.016C414.401 131.313 414.644 131.561 414.951 131.561C415.265 131.561 415.508 131.32 415.508 131.016C415.508 127.895 414.494 125.525 412.779 124.683C411.714 124.159 410.493 124.315 409.421 125.108L409.414 125.1C408.463 125.808 407.406 126.841 406.413 127.938C406.706 128.15 406.999 128.377 407.27 128.624C408.22 127.598 409.199 126.629 410.078 125.971ZM413.843 139.818C413.229 140.08 413.05 140.108 412.993 140.115C412.972 140.094 412.943 140.03 412.943 139.875C412.95 139.542 413.043 139.054 413.215 138.41L413.643 136.811L412.672 137.066C412.672 137.066 412.214 139.16 412.193 139.273C412.093 139.309 411.743 139.436 411.743 139.436C411.407 139.563 411.3 139.585 411.264 139.592C411.214 139.57 411.186 139.464 411.186 139.309C411.186 139.174 411.207 139.011 411.243 138.842C411.278 138.665 411.4 138.155 411.586 137.363C411.714 136.776 411.736 136.627 411.743 136.556C411.743 136.422 411.671 136.316 411.564 136.287C411.493 136.266 411.407 136.238 410.164 136.676L410.092 136.698L410.021 137.2L410.2 137.143C410.55 137.037 410.678 137.037 410.721 137.059C410.743 137.066 410.757 137.115 410.771 137.172C410.771 137.285 410.721 137.625 410.485 138.559C410.414 138.82 410.371 139.026 410.35 139.146C410.328 139.28 410.314 139.443 410.314 139.641C410.314 140.045 410.428 140.292 410.657 140.37C410.743 140.398 410.843 140.391 410.957 140.349C411.043 140.32 411.228 140.25 411.521 140.137C411.521 140.137 411.886 139.981 412.1 139.896C412.093 139.974 412.079 140.059 412.079 140.059C412.05 140.214 412.043 140.349 412.043 140.462C412.043 140.731 412.172 140.837 412.279 140.865C412.429 140.915 412.672 140.858 413.072 140.681C413.422 140.533 413.708 140.398 413.915 140.292L413.965 140.264H413.958L414.036 139.733L413.843 139.818ZM377.219 135.41L374.497 129.65H371.839L371.832 129.657L376.133 137.632C375.918 138.261 375.69 138.665 375.461 138.863C375.225 139.047 374.832 139.146 374.289 139.146C374.018 139.146 373.711 139.139 373.382 139.118V140.795C373.775 140.872 374.318 140.922 375.018 140.922C375.733 140.922 376.297 140.681 376.747 140.207C377.197 139.726 377.64 139.033 378.069 138.113L382.02 129.657H379.555L377.219 135.41ZM367.645 134.023H363.036V129.643H360.671V140.759H363.036V135.898H367.645V140.759H370.01V129.643H367.645V134.023V134.023ZM297.825 130.938C298.775 131.929 299.254 133.351 299.254 135.191C299.254 136.393 299.047 137.426 298.625 138.283C298.218 139.132 297.625 139.797 296.868 140.271C296.117 140.738 295.167 140.979 294.038 140.979C292.895 140.979 291.973 140.802 291.302 140.462C290.63 140.115 290.03 139.563 289.523 138.785C289.015 138.021 288.722 137.151 288.622 136.167H286.722V140.766H284.357V129.65H284.364H286.729V134.299H288.63C288.765 132.926 289.273 131.773 290.159 130.839C291.03 129.912 292.309 129.445 293.981 129.445C295.581 129.445 296.86 129.94 297.825 130.938ZM296.818 135.084C296.818 133.804 296.546 132.87 295.989 132.275C295.439 131.681 294.724 131.384 293.867 131.384C293.024 131.384 292.338 131.681 291.802 132.282C291.273 132.884 291.009 133.86 291.009 135.205L290.994 135.219C290.994 136.457 291.252 137.419 291.766 138.085C292.288 138.764 292.995 139.089 293.938 139.089C294.896 139.089 295.61 138.75 296.089 138.085C296.567 137.419 296.818 136.422 296.818 135.084ZM260.057 140.766H262.422V131.525H266.988V140.766H269.353V129.65H260.064L260.057 140.766ZM273.175 129.657V136.004L273.182 137.915C273.182 138.41 273.104 138.721 272.925 138.842C272.746 138.969 272.418 139.026 271.925 139.026L271.396 139.019V140.759C272.118 140.809 272.625 140.837 272.904 140.837C273.682 140.837 274.261 140.681 274.633 140.384C275.004 140.087 275.226 139.655 275.326 139.125C275.426 138.594 275.476 137.632 275.476 136.28V131.532H278.984V140.773H281.349V129.657H273.175ZM308.464 136.669C308.271 137.483 307.935 138.085 307.485 138.46C307.035 138.835 306.485 139.033 305.863 139.033C305.013 139.033 304.32 138.735 303.791 138.134C303.255 137.533 302.991 136.535 302.991 135.134C302.991 133.804 303.262 132.848 303.805 132.254C304.341 131.653 305.048 131.363 305.92 131.363C306.549 131.363 307.085 131.525 307.521 131.865C307.956 132.205 308.256 132.657 308.392 133.231L310.729 132.707C310.464 131.815 310.064 131.129 309.535 130.655C308.635 129.848 307.471 129.445 306.042 129.445C304.405 129.445 303.091 129.962 302.083 130.988C301.083 132.014 300.576 133.457 300.576 135.304C300.576 137.059 301.076 138.445 302.069 139.45C303.069 140.455 304.348 140.964 305.906 140.964C307.17 140.964 308.192 140.667 309.014 140.073C309.828 139.471 310.414 138.559 310.764 137.342L308.478 136.676H308.464V136.669ZM350.597 137.059V129.65H348.396V140.766H350.74L355.477 133.485V140.766H357.678V129.65H355.334L350.597 137.059ZM339.787 137.235L337.693 129.65H334.15V140.766H336.322L336.329 132.014L338.629 140.766H340.909L343.216 132.014L343.224 140.766H345.417V129.65H341.866L339.787 137.235ZM390.287 138.46C389.83 138.835 389.287 139.033 388.665 139.033C387.815 139.033 387.129 138.735 386.593 138.134C386.057 137.533 385.793 136.535 385.793 135.134C385.793 133.804 386.064 132.848 386.607 132.254C387.143 131.653 387.85 131.363 388.722 131.363C389.351 131.363 389.887 131.525 390.323 131.865C390.751 132.205 391.044 132.657 391.18 133.231L393.516 132.707C393.252 131.815 392.852 131.129 392.323 130.655C391.423 129.848 390.258 129.445 388.829 129.445C387.193 129.445 385.878 129.962 384.871 130.988C383.871 132.014 383.363 133.457 383.363 135.304C383.363 137.059 383.864 138.445 384.857 139.45C385.857 140.455 387.136 140.964 388.693 140.964C389.944 140.964 390.98 140.667 391.794 140.073C392.609 139.471 393.195 138.559 393.545 137.342L391.266 136.676C391.066 137.483 390.737 138.085 390.287 138.46ZM319.867 137.059V129.65H317.666V140.766H320.017L324.754 133.485V140.766H326.955V129.65H324.604L319.867 137.059ZM396.146 131.03L396.36 131.37H396.017L395.86 131.101C395.731 130.888 395.638 130.754 395.56 130.697C395.51 130.662 395.431 130.641 395.338 130.641H395.167V131.377H394.881H394.874V129.636H395.481C395.688 129.636 395.846 129.657 395.931 129.686C396.031 129.714 396.096 129.77 396.153 129.848C396.21 129.926 396.231 130.011 396.231 130.11C396.231 130.237 396.181 130.351 396.096 130.443C396.01 130.542 395.881 130.591 395.731 130.598C395.788 130.627 395.846 130.655 395.881 130.697C395.946 130.754 396.038 130.867 396.146 131.03ZM395.838 130.329C395.896 130.28 395.924 130.216 395.924 130.138C395.924 130.089 395.903 130.039 395.874 130.004C395.846 129.969 395.803 129.933 395.76 129.919C395.717 129.905 395.61 129.891 395.474 129.891H395.152V130.407H395.495C395.667 130.393 395.774 130.372 395.838 130.329ZM397.017 129.657C397.167 129.919 397.232 130.188 397.232 130.471C397.232 130.754 397.16 131.023 397.017 131.278C396.867 131.539 396.674 131.73 396.41 131.879C396.146 132.028 395.881 132.091 395.595 132.091C395.31 132.091 395.038 132.021 394.781 131.879C394.517 131.73 394.324 131.539 394.174 131.278C394.024 131.016 393.959 130.754 393.959 130.471C393.959 130.188 394.031 129.919 394.174 129.657C394.324 129.395 394.524 129.204 394.788 129.056C395.052 128.921 395.317 128.844 395.588 128.844C395.86 128.844 396.138 128.914 396.389 129.056C396.66 129.19 396.867 129.395 397.017 129.657ZM396.967 130.471C396.967 130.237 396.91 130.004 396.781 129.792C396.667 129.579 396.489 129.403 396.274 129.289C396.06 129.176 395.831 129.112 395.603 129.112C395.374 129.112 395.145 129.169 394.931 129.289C394.717 129.403 394.538 129.572 394.424 129.792C394.295 130.004 394.238 130.237 394.238 130.471C394.238 130.704 394.295 130.924 394.417 131.15C394.531 131.363 394.709 131.525 394.924 131.653C395.138 131.766 395.367 131.837 395.61 131.837C395.846 131.837 396.067 131.78 396.296 131.653C396.51 131.539 396.689 131.363 396.803 131.15C396.917 130.938 396.967 130.712 396.967 130.471Z" fill="white"/>
</g>
<g clip-path="url(#clip2_405_57)">
<path d="M177.919 21.6402H142.36L141.879 34.3775C141.599 40.3573 140.958 44.8826 139.957 47.9518C138.955 51.0218 137.234 52.5564 134.791 52.5564H133.59V71.6925H146.564V63.5001H146.565H170.472V71.6925H183.445V52.5564H177.919V21.6402V21.6402ZM163.983 52.5564H151.009C152.01 50.8821 152.751 48.6399 153.232 45.8288C153.713 43.0185 154.033 39.6002 154.193 35.5731L154.313 32.5832H163.983V52.5564ZM94.0988 65.8981H97.6157C93.7306 69.5644 89.4182 72.8424 84.7346 75.6454L84.6732 75.6817C73.3884 82.3737 60.6921 85.9411 47.9579 85.9993C47.8519 86 47.7467 86 47.6415 86C35.263 86 23.4902 82.7104 13.5766 76.4774L11.2724 75.0294L11.0752 72.3238C10.9196 70.1877 10.883 68.0429 10.9612 65.8973H14.1756H16.585V63.4987V50.768H16.6902L22.2117 61.1466C21.8523 63.6812 21.6806 66.237 21.7193 68.7956C38.625 78.1248 60.8324 77.3 79.121 66.4675L79.1451 66.453C83.8112 63.6638 88.0155 60.3393 91.6895 56.6184V63.4994V65.8981H94.0988ZM42.2274 19.2401H33.4096C37.05 15.9236 41.0505 12.9431 45.3629 10.3633C56.677 3.64815 69.3711 0.0712757 82.1024 0.000727303C82.231 0 82.361 0 82.4889 0C94.8484 0 106.597 3.27941 116.492 9.49567L118.38 10.6819C118.38 10.6819 119.139 13.4573 119.139 19.5841C117.616 19.3594 116.017 19.2408 114.342 19.2408H108.349C108.367 18.5571 108.375 17.872 108.364 17.1876C91.4579 7.86215 69.2286 8.70946 50.9188 19.5761C48.0105 21.3158 45.2833 23.2643 42.7497 25.3858L44.2824 22.8911L46.5252 19.2415V19.2401H42.2274V19.2401ZM14.1756 63.5001H0V21.6402H14.1756V37.2474H18.5005L27.4505 21.6402H42.2274L29.7335 41.972L42.1668 63.5001H26.1896L18.1404 48.3708H14.1756V63.5001ZM227.548 20.5623C215.278 20.5623 205.296 30.5009 205.296 42.716C205.296 54.9318 215.278 64.8696 227.548 64.8696C239.818 64.8696 249.801 54.9318 249.801 42.716C249.801 30.5002 239.818 20.5623 227.548 20.5623ZM227.548 51.9462C222.436 51.9462 218.276 47.8057 218.276 42.716C218.276 37.6263 222.436 33.4851 227.548 33.4851C232.661 33.4851 236.82 37.6263 236.82 42.716C236.82 47.8057 232.661 51.9462 227.548 51.9462ZM255.084 21.9267H295.75V63.7867H281.814V32.8705H269.019V63.7867H255.084V21.9267ZM302.29 21.9267H340.853V32.8705H328.539V63.7867H314.604V32.8705H302.29V21.9267ZM376.733 21.9267H390.068V63.7867H376.132V42.0796L361.716 63.7867H348.322V21.9267H362.257V43.6942L376.733 21.9267ZM472.619 21.9267H458.684L441.082 62.0143L429.672 42.2585L442.165 21.9267H427.389L418.439 37.5347H414.114V21.9267H399.938V63.7867H414.114V48.6573H418.078L426.128 63.7867H440.303H442.105H454.719L457.542 56.4911H473.52L476.344 63.7867H491L472.619 21.9267ZM461.447 46.3256L465.531 35.8008L469.616 46.3256H461.447V46.3256ZM58.979 36.6946C57.5763 38.3129 56.7252 40.417 56.7252 42.7167C56.7252 47.8064 60.885 51.9477 65.9974 51.9477C71.1098 51.9477 75.2696 47.8064 75.2696 42.7167C75.2696 37.627 71.1098 33.4858 65.9974 33.4858V20.5623C78.2677 20.5623 88.25 30.5002 88.25 42.716C88.25 54.931 78.2677 64.8696 65.9974 64.8696C53.727 64.8696 43.7448 54.931 43.7448 42.716C43.7448 37.0903 45.8656 31.9512 49.3481 28.0397L58.979 36.6946ZM124.492 23.5545C121.609 22.2788 118.225 21.6409 114.341 21.6409H94.0988V63.5001H108.274V53.2146H114.341C118.225 53.2146 121.609 52.5775 124.492 51.3011C127.375 50.0261 129.598 48.1919 131.16 45.7998C132.721 43.4077 133.502 40.6177 133.502 37.4278C133.502 34.2385 132.721 31.4479 131.16 29.0558C129.598 26.6637 127.375 24.8309 124.492 23.5545ZM117.765 41.0446C116.804 41.9021 115.362 42.3305 113.44 42.3305H108.274V32.5236H113.44C115.362 32.5236 116.804 32.9527 117.765 33.8094C118.726 34.6669 119.206 35.8721 119.206 37.427C119.206 38.982 118.726 40.1879 117.765 41.0446Z" fill="white"/>
</g>
<defs>
<clipPath id="clip0_405_57">
<rect width="171" height="43" fill="white" transform="translate(60 98)"/>
</clipPath>
<clipPath id="clip1_405_57">
<rect width="177" height="55" fill="white" transform="translate(260 92)"/>
</clipPath>
<clipPath id="clip2_405_57">
<rect width="491" height="86" fill="white"/>
</clipPath>
</defs>
</svg>
