<svg width="290" height="93" viewBox="0 0 290 93" fill="none" xmlns="http://www.w3.org/2000/svg">
<g clip-path="url(#clip0_405_57)">
<path d="M37.0769 85.6826C36.6149 85.6826 36.2262 85.8477 35.9109 86.1772C35.5957 86.5072 35.4379 86.925 35.4379 87.4305C35.4379 87.949 35.5916 88.374 35.8988 88.7061C36.2063 89.038 36.5989 89.2043 37.0767 89.2043C37.5546 89.2043 37.9472 89.0392 38.2546 88.7092C38.5619 88.3794 38.7156 87.9533 38.7156 87.4305C38.7156 86.925 38.559 86.5074 38.2458 86.1772C37.9327 85.8477 37.5429 85.6826 37.0769 85.6826ZM37.7027 88.1599C37.5478 88.3465 37.3392 88.4396 37.0769 88.4396C36.8147 88.4396 36.606 88.3465 36.4512 88.1599C36.2964 87.9737 36.219 87.7368 36.219 87.4497C36.219 87.1586 36.2962 86.9186 36.4512 86.7301C36.606 86.5415 36.8147 86.4475 37.0769 86.4475C37.3431 86.4475 37.5526 86.5406 37.7055 86.7272C37.8581 86.9134 37.9346 87.1545 37.9346 87.4499C37.9346 87.7368 37.857 87.9737 37.7027 88.1599ZM51.8203 85.7852H54.4578V89.114H53.6942V86.4728H52.584V89.114H51.8203V85.7852ZM67.7619 85.7852H69.9353V86.4792H69.2302V89.1142H68.4666V86.4792H67.7619V85.7852ZM85.2406 85.7852H85.9281V89.114H85.1645V86.9918L83.8354 89.114H83.1494V85.7852H83.9131V87.8609L85.2406 85.7852ZM100.887 87.3971L102.058 89.1142H101.153L100.131 87.4822V89.1142H99.3788V85.7854H100.131V87.3213L101.188 85.7854H102.034L100.887 87.3971ZM117.364 86.1454C117.144 85.8411 116.829 85.6887 116.418 85.6887C115.972 85.6887 115.607 85.8583 115.325 86.1966C115.043 86.5351 114.902 86.9508 114.902 87.4433C114.902 87.9403 115.045 88.3581 115.33 88.6966C115.616 89.0351 115.982 89.2043 116.431 89.2043C116.836 89.2043 117.155 89.0434 117.387 88.7222V89.1142H118.127V85.7854H117.364V86.1454V86.1454ZM117.129 88.1568C116.956 88.3579 116.751 88.4588 116.512 88.4588C116.265 88.4588 116.059 88.3572 115.892 88.1535C115.726 87.9505 115.643 87.7133 115.643 87.4433C115.643 87.1695 115.723 86.9335 115.883 86.7367C116.044 86.5394 116.25 86.4408 116.5 86.4408C116.754 86.4408 116.966 86.5403 117.135 86.7398C117.303 86.939 117.387 87.1799 117.387 87.4625C117.387 87.724 117.301 87.9552 117.129 88.1568ZM136.43 87.0018C136.409 86.9347 136.399 86.8677 136.379 86.8118C136.073 85.9519 135.767 85.0923 135.4 84.2661C135.105 83.6073 134.789 82.9485 134.483 82.3009C133.882 81.0393 133.219 79.8333 132.434 78.6944C131.955 78.002 131.446 77.3433 130.855 76.7627C130.559 76.4725 130.243 76.1932 129.948 75.8917C129.489 75.434 129.102 74.898 128.898 74.2503C128.766 73.8595 128.684 73.4464 128.603 73.0444C128.46 72.3075 128.307 71.5705 128.083 70.867C127.634 69.4825 127.064 68.1538 126.432 66.9924C125.932 66.0321 125.443 65.1947 124.903 64.4019C124.455 63.7431 123.996 63.0955 123.538 62.4479C123.446 62.3138 123.324 62.1911 123.212 62.0682C123.161 62.0011 123.079 61.9789 122.997 62.0234C122.62 62.2579 122.233 62.4813 121.846 62.7044C121.785 62.7378 121.744 62.7937 121.683 62.8385C121.642 62.8719 121.622 62.9278 121.632 62.9948C121.642 63.0619 121.642 63.1287 121.642 63.1957C121.612 63.5195 121.448 63.7652 121.265 63.9997C121.143 64.1671 120.99 64.3123 120.847 64.4687C120.766 64.5691 120.684 64.6809 120.592 64.7702C120.164 65.2056 119.726 65.6301 119.298 66.0655C118.891 66.4897 118.513 66.9254 118.208 67.45C117.871 68.0306 117.718 68.656 117.8 69.3481C117.841 69.7613 117.953 70.1632 118.085 70.5541C118.15 70.7396 118.222 70.9217 118.298 71.1013H116.72L112.541 75.5899V71.102H111.135V82.1114H112.541V77.4331L116.801 82.1114H118.473L113.499 76.5507L118.356 71.2297C118.557 71.684 118.789 72.1215 119.043 72.5422C119.441 73.1676 119.869 73.7593 120.378 74.284C120.755 74.6748 121.173 74.9986 121.662 75.1884C122.417 75.4786 123.191 75.6126 123.986 75.5792C124.781 75.5458 125.566 75.3895 126.34 75.1995C126.564 75.1436 126.778 75.088 127.003 75.0432C127.339 74.9761 127.614 75.088 127.828 75.3781C127.899 75.4674 127.961 75.5679 128.011 75.6797C128.124 75.9253 128.195 76.1821 128.093 76.4614C128.052 76.5841 128.001 76.6959 127.93 76.8075C127.797 77.0083 127.655 77.1983 127.502 77.388C126.839 78.1809 126.258 79.0405 125.779 79.9785C125.372 80.76 125.148 81.5862 125.168 82.4795C125.188 83.116 125.301 83.73 125.494 84.3331C125.779 85.2264 126.167 86.0749 126.635 86.8677C126.921 87.359 127.237 87.8169 127.614 88.2075C128.011 88.6095 128.46 88.911 129 88.9889C129.346 89.0448 129.703 89.0337 130.05 88.9778C130.783 88.8662 131.497 88.654 132.21 88.4083C132.557 88.2968 132.903 88.1738 133.25 88.0623C133.433 88.0064 133.616 87.9618 133.8 87.9059C133.973 87.8614 134.146 87.8055 134.33 87.8278C134.513 87.85 134.697 87.8725 134.839 88.0175C134.901 88.0734 134.972 88.0845 135.043 88.0509C135.104 88.0398 135.155 88.0175 135.206 87.9839C135.441 87.8387 135.665 87.6934 135.889 87.5485C136.042 87.4369 136.195 87.314 136.348 87.2024C136.419 87.1581 136.45 87.0911 136.43 87.0018ZM122.743 62.9065C122.804 62.8731 122.967 63.0517 123.1 63.3196C123.242 63.5875 123.314 63.8445 123.252 63.8779C123.191 63.9113 123.028 63.7327 122.885 63.4648C122.743 63.1966 122.682 62.951 122.743 62.9065ZM127.482 72.6652C127.431 72.989 127.258 73.2457 127.033 73.4469C126.565 73.8822 126.014 74.1502 125.433 74.3401C124.679 74.5858 123.915 74.6973 123.13 74.6973C122.702 74.6973 122.284 74.6526 121.877 74.5187C121.326 74.3401 120.878 74.0052 120.491 73.5696C119.696 72.6763 119.074 71.6715 118.656 70.5103C118.575 70.2869 118.524 70.0524 118.462 69.8179C118.34 69.3266 118.391 68.8689 118.595 68.4111C118.819 67.9086 119.135 67.4955 119.502 67.1158C119.981 66.6134 120.501 66.1778 121.041 65.7535C121.347 65.5079 121.683 65.307 122.029 65.1507C122.202 65.0614 122.376 64.9721 122.559 64.9161C123.212 64.6928 123.782 64.8491 124.261 65.3852C124.699 65.8653 125.087 66.4011 125.443 66.9595C125.698 67.3726 125.943 67.7968 126.106 68.0761C126.626 69.0809 127.013 69.9631 127.278 70.9011C127.38 71.2808 127.502 71.6603 127.512 72.0623C127.512 72.2632 127.512 72.4643 127.482 72.6652ZM134.259 85.5727C134.157 85.7513 134.055 85.9299 133.933 86.0862C133.79 86.276 133.607 86.4212 133.413 86.5441C133.117 86.7564 132.812 86.9684 132.506 87.147C131.701 87.6271 130.845 87.9732 129.927 88.1407C129.56 88.2077 129.194 88.2077 128.827 88.0961C128.419 87.9732 128.103 87.7053 127.807 87.3815C127.441 86.9795 127.155 86.5105 126.89 86.0192C126.493 85.2823 126.197 84.5006 125.953 83.6855C125.718 82.8815 125.759 82.1 126.034 81.3183C126.391 80.3135 126.951 79.4648 127.665 78.7278C128.001 78.3929 128.338 78.0691 128.735 77.8346C128.908 77.723 129.092 77.6446 129.275 77.5666C129.734 77.388 130.152 77.4996 130.539 77.8234C130.916 78.1472 131.242 78.5267 131.558 78.9176C131.915 79.3641 132.241 79.822 132.536 80.3133C132.771 80.693 132.995 81.0838 133.138 81.3404C133.657 82.4345 134.075 83.4059 134.31 84.4556C134.35 84.6453 134.371 84.8464 134.381 85.0473C134.402 85.2377 134.361 85.4163 134.259 85.5727ZM135.461 87.0465C135.4 87.0799 135.237 86.8902 135.094 86.6334C134.952 86.3655 134.891 86.1087 134.952 86.0751C135.003 86.0417 135.166 86.2203 135.309 86.4882C135.451 86.7561 135.523 87.0018 135.461 87.0465ZM45.4115 76.495L48.846 82.1337H47.2562L44.6167 77.7566L41.9567 82.1337H40.3568L43.7811 76.495L40.5505 71.1131H42.1403L44.6167 75.1886L47.0627 71.1131H48.6423L45.4115 76.495ZM55.2563 71.6826C54.9506 71.4703 54.5837 71.3251 54.1761 71.2361C53.7582 71.1579 53.2283 71.1131 52.5762 71.1131C50.7315 71.1131 49.6003 71.1131 49.6003 71.1131C49.6003 78.449 49.6003 82.1225 49.6003 82.1225H51.0067V77.6673H52.7392C53.422 77.6673 53.9621 77.6228 54.38 77.511C54.7876 77.3994 55.1443 77.2206 55.45 76.9752C55.7763 76.7184 56.0208 76.3721 56.194 75.9256C56.3674 75.4902 56.4591 74.9989 56.4591 74.4406C56.4591 73.8041 56.3572 73.246 56.1432 72.777C55.9391 72.2968 55.6435 71.9282 55.2563 71.6826ZM52.678 76.3275H51.0067V72.4418H52.2398C53.7991 72.4418 55.1341 72.2632 55.1341 74.4292C55.1341 76.2939 54.1048 76.3275 52.678 76.3275ZM63.0322 71.1131H64.51L60.1889 82.1225H58.7212L59.8728 79.2082L56.6932 71.1131H58.1608L60.6068 77.3994L63.0322 71.1131ZM80.9179 72.3302C80.9179 72.3302 80.1536 72.3302 78.6147 72.3302C78.6147 72.3302 78.6147 75.4454 78.6147 82.1225C78.6147 82.1225 77.8707 82.1225 77.1981 82.1225C77.1981 82.1225 77.1981 79.0073 77.1981 72.3302C77.1981 72.3302 76.4338 72.3302 74.905 72.3302C74.905 72.3302 74.905 71.7719 74.905 71.1131C74.905 71.1131 77.1778 71.1131 80.9179 71.1131C80.9179 71.1131 80.9179 71.6603 80.9179 72.3302ZM84.393 71.0909L80.0821 82.1114H81.5497L82.9153 78.5049H87.3892L88.7446 82.1114H90.2631L85.9318 71.0909C85.9318 71.0909 84.393 71.0909 84.393 71.0909ZM83.5064 77.176L85.1675 72.7879L86.7983 77.176H83.5064ZM72.9585 79.2305H74.4261C73.5598 81.0841 71.7866 82.3793 69.7688 82.3793C66.8744 82.3793 64.5305 79.8113 64.5305 76.6514C64.5305 73.4803 66.8744 70.9123 69.7688 70.9123C71.7765 70.9123 73.5191 72.1516 74.3956 73.9715H72.8975C72.1637 72.9556 71.0325 72.2968 69.7688 72.2968C67.5777 72.2968 65.7942 74.2508 65.7942 76.6514C65.7942 79.0519 67.5777 80.9948 69.7688 80.9948C71.063 80.9948 72.2351 80.2912 72.9585 79.2305ZM100.719 82.1114H99.2214L95.6341 72.7881L92.0264 82.1114H90.5385L94.8698 71.0909H96.3882L100.719 82.1114ZM108.363 71.102H109.881V82.1114H108.465V73.5248L102.982 82.1112H101.473V71.102H102.88V79.6995L108.363 71.102Z" fill="white"/>
</g>
<g clip-path="url(#clip1_405_57)">
<path d="M169.845 66.8393C169.845 71.6023 166.195 75.4745 161.705 75.4745C157.214 75.4745 153.564 71.6023 153.564 66.8393C153.564 64.6413 154.336 62.6403 155.615 61.1138L159.139 64.4846C158.62 65.1158 158.312 65.935 158.312 66.8303C158.312 68.8179 159.831 70.4294 161.705 70.4294C163.578 70.4294 165.097 68.8179 165.097 66.8303C165.097 64.8517 163.578 63.2357 161.705 63.2357V58.2041C166.195 58.2041 169.845 62.0763 169.845 66.8393ZM198.65 75.0492V62.994H203.157V58.7323H189.046V62.9984H193.553V75.0537H198.65V75.0492ZM216.062 66.5886V75.0492H221.156V58.7323H216.282L210.986 67.2198V58.7323H205.884V75.0492H210.787L216.062 66.5886ZM252.713 75.0492L251.679 72.2066H245.834L244.8 75.0492H240.184H239.525H234.339L231.393 69.1492H229.942V75.0492H224.755V58.7323H229.942V64.8159H231.524L234.799 58.7323H240.205L235.634 66.6557L239.812 74.3598L246.252 58.7323H251.345L258.068 75.0492H252.713ZM250.257 68.2404L248.763 64.1355L247.265 68.2404H247.269H250.257ZM171.778 75.0492H176.871V62.994H181.555V75.0492H186.649V58.7323H171.778V75.0492ZM256.532 85.2154C255.92 84.8886 255.232 84.9871 254.595 85.4929C253.384 86.4598 252.476 87.7804 251.978 88.5996C252.025 88.8995 252.046 89.2084 252.046 89.5128C252.046 89.6068 252.046 89.6963 252.042 89.7903C252.076 89.759 252.109 89.7232 252.135 89.6784C252.147 89.6561 253.266 87.4312 254.987 86.0525C255.287 85.8063 255.755 85.5824 256.245 85.8376C256.827 86.1509 257.456 87.2029 257.456 89.2308C257.456 89.4188 257.599 89.5755 257.781 89.5755C257.962 89.5755 258.106 89.4233 258.106 89.2308C258.11 87.2387 257.519 85.7346 256.532 85.2154ZM251.645 89.5083C251.645 90.7573 251.219 91.8227 250.472 92.4449C249.847 92.9642 249.041 93.1253 248.197 92.906C246.244 92.3912 244.648 89.9873 244.648 87.5566C244.648 86.3076 245.075 85.2422 245.822 84.62C246.446 84.1052 247.252 83.9395 248.096 84.1589C250.05 84.6737 251.645 87.0776 251.645 89.5083ZM249.894 89.186C248.902 88.9309 247.235 88.5011 246.324 87.9057C246.168 87.8073 245.973 87.8565 245.881 88.0221C245.788 88.1878 245.834 88.3937 245.986 88.4922C246.91 89.092 248.349 89.4949 249.742 89.8575V89.853C249.915 89.8978 250.092 89.7859 250.134 89.6023C250.177 89.4188 250.067 89.2263 249.894 89.186ZM242.095 86.0256C242.095 87.2701 241.669 88.34 240.922 88.9622C240.298 89.4815 239.492 89.6426 238.648 89.4233C236.694 88.9085 235.099 86.5046 235.099 84.0738C235.099 82.8294 235.525 81.7595 236.272 81.1373C236.896 80.618 237.702 80.4568 238.546 80.6762C240.509 81.191 242.095 83.5904 242.095 86.0256ZM240.428 85.6451C239.846 85.4929 239.205 85.278 238.601 85.0318C238.538 84.1231 238.508 83.2725 238.534 82.6414C238.538 82.4533 238.403 82.2922 238.221 82.2788C238.044 82.2743 237.892 82.4175 237.888 82.61C237.867 83.2144 237.888 83.9575 237.934 84.7319C237.525 84.5439 237.154 84.338 236.867 84.1544C236.711 84.0559 236.516 84.1052 236.424 84.2663C236.331 84.432 236.377 84.6379 236.533 84.7364C236.955 85.0139 237.47 85.2691 238.002 85.5019C238.078 86.3524 238.175 87.1984 238.28 87.8789C238.31 88.0669 238.479 88.1967 238.656 88.1654C238.833 88.134 238.951 87.955 238.922 87.767C238.825 87.1403 238.745 86.4553 238.681 85.7749C239.259 85.9943 239.829 86.1778 240.293 86.3031C240.466 86.3479 240.644 86.236 240.686 86.0525C240.728 85.8689 240.622 85.6809 240.449 85.6361L240.428 85.6451ZM242.205 79.6958C242.644 79.3466 243.095 79.2795 243.505 79.4944C244.112 79.8212 244.758 80.8776 244.758 82.8876C244.758 83.0756 244.902 83.2323 245.083 83.2323C245.269 83.2323 245.412 83.0801 245.412 82.8876C245.412 80.9134 244.813 79.4138 243.8 78.8811C243.171 78.5498 242.45 78.6483 241.817 79.1497L241.813 79.1452C241.251 79.5929 240.627 80.2464 240.04 80.9403C240.213 81.0746 240.386 81.2178 240.547 81.3745C241.108 80.7254 241.686 80.1121 242.205 79.6958ZM244.429 88.4563C244.066 88.622 243.96 88.6399 243.927 88.6444C243.914 88.6309 243.897 88.5906 243.897 88.4922C243.901 88.2818 243.956 87.9729 244.058 87.5655L244.311 86.5538L243.737 86.715C243.737 86.715 243.467 88.04 243.454 88.1117C243.395 88.134 243.188 88.2146 243.188 88.2146C242.99 88.2952 242.927 88.3086 242.905 88.3131C242.876 88.2997 242.859 88.2325 242.859 88.134C242.859 88.049 242.872 87.946 242.893 87.8386C242.914 87.7267 242.986 87.4044 243.095 86.903C243.171 86.5314 243.184 86.4374 243.188 86.3927C243.188 86.3076 243.146 86.2405 243.083 86.2226C243.041 86.2091 242.99 86.1912 242.256 86.4688L242.213 86.4822L242.171 86.8L242.277 86.7642C242.483 86.6971 242.559 86.6971 242.585 86.7105C242.597 86.715 242.606 86.7463 242.614 86.7821C242.614 86.8538 242.585 87.0686 242.446 87.6595C242.403 87.8252 242.378 87.955 242.365 88.0311C242.353 88.1161 242.344 88.2191 242.344 88.3444C242.344 88.5996 242.412 88.7563 242.547 88.8055C242.597 88.8234 242.657 88.8189 242.724 88.7921C242.775 88.7742 242.884 88.7294 243.057 88.6578C243.057 88.6578 243.273 88.5593 243.399 88.5056C243.395 88.5548 243.387 88.6085 243.387 88.6085C243.37 88.707 243.365 88.7921 243.365 88.8637C243.365 89.0338 243.441 89.101 243.505 89.1189C243.593 89.1502 243.737 89.1144 243.973 89.0025C244.18 88.9085 244.349 88.8234 244.471 88.7563L244.501 88.7384H244.496L244.543 88.4026L244.429 88.4563ZM222.797 85.6675L221.189 82.0236H219.62L219.615 82.0281L222.156 87.0731C222.029 87.4715 221.894 87.7267 221.759 87.852C221.62 87.9684 221.388 88.0311 221.067 88.0311C220.907 88.0311 220.725 88.0266 220.531 88.0132V89.0741C220.763 89.1233 221.084 89.1547 221.498 89.1547C221.92 89.1547 222.253 89.0025 222.519 88.7026C222.785 88.3982 223.046 87.9595 223.299 87.3775L225.633 82.0281H224.177L222.797 85.6675ZM217.142 84.7901H214.421V82.0191H213.024V89.0517H214.421V85.9764H217.142V89.0517H218.539V82.0191H217.142V84.7901V84.7901ZM175.905 82.8383C176.466 83.465 176.749 84.3648 176.749 85.5287C176.749 86.2897 176.626 86.9433 176.377 87.4849C176.137 88.0221 175.787 88.4429 175.339 88.7428C174.896 89.0383 174.335 89.1905 173.668 89.1905C172.993 89.1905 172.449 89.0786 172.052 88.8637C171.655 88.6444 171.301 88.2952 171.001 87.8028C170.702 87.3193 170.528 86.7687 170.469 86.1465H169.347V89.0562H167.95V82.0236H167.954H169.351V84.9647H170.474C170.554 84.0962 170.853 83.3666 171.377 82.7757C171.892 82.1892 172.647 81.8938 173.634 81.8938C174.58 81.8938 175.335 82.2071 175.905 82.8383ZM175.31 85.4616C175.31 84.6513 175.149 84.0604 174.82 83.6844C174.495 83.3084 174.073 83.1203 173.567 83.1203C173.069 83.1203 172.664 83.3084 172.347 83.6889C172.035 84.0694 171.879 84.6871 171.879 85.5377L171.87 85.5466C171.87 86.33 172.022 86.9388 172.326 87.3596C172.634 87.7893 173.052 87.9953 173.609 87.9953C174.175 87.9953 174.597 87.7804 174.879 87.3596C175.162 86.9388 175.31 86.3076 175.31 85.4616ZM153.598 89.0562H154.995V83.2099H157.691V89.0562H159.088V82.0236H153.602L153.598 89.0562ZM161.346 82.0281V86.0435L161.35 87.2522C161.35 87.5655 161.304 87.7625 161.198 87.8386C161.093 87.9192 160.898 87.955 160.607 87.955L160.295 87.9505V89.0517C160.721 89.0831 161.021 89.101 161.185 89.101C161.645 89.101 161.987 89.0025 162.207 88.8145C162.426 88.6265 162.557 88.3534 162.616 88.0176C162.675 87.6819 162.705 87.0731 162.705 86.2181V83.2144H164.777V89.0607H166.173V82.0281H161.346ZM182.188 86.4643C182.074 86.9791 181.876 87.3596 181.61 87.5969C181.344 87.8341 181.019 87.9595 180.652 87.9595C180.15 87.9595 179.741 87.7714 179.428 87.3909C179.112 87.0104 178.956 86.3792 178.956 85.4929C178.956 84.6513 179.116 84.047 179.437 83.671C179.753 83.2905 180.171 83.1069 180.686 83.1069C181.057 83.1069 181.374 83.2099 181.631 83.4247C181.889 83.6396 182.066 83.9261 182.146 84.2887L183.526 83.9575C183.37 83.3934 183.134 82.9592 182.821 82.6593C182.29 82.1489 181.602 81.8938 180.758 81.8938C179.791 81.8938 179.015 82.2206 178.42 82.8697C177.829 83.5188 177.529 84.432 177.529 85.6003C177.529 86.7105 177.825 87.5879 178.411 88.2236C179.002 88.8592 179.758 89.1815 180.678 89.1815C181.425 89.1815 182.028 88.9935 182.513 88.6175C182.994 88.237 183.34 87.6595 183.547 86.8896L182.197 86.4688H182.188V86.4643ZM207.074 86.7105V82.0236H205.774V89.0562H207.158L209.956 84.4499V89.0562H211.256V82.0236H209.871L207.074 86.7105ZM200.689 86.8224L199.452 82.0236H197.359V89.0562H198.642L198.646 83.5188L200.005 89.0562H201.351L202.714 83.5188L202.719 89.0562H204.014V82.0236H201.917L200.689 86.8224ZM230.516 87.5969C230.246 87.8341 229.925 87.9595 229.558 87.9595C229.055 87.9595 228.65 87.7714 228.334 87.3909C228.017 87.0104 227.861 86.3792 227.861 85.4929C227.861 84.6513 228.022 84.047 228.342 83.671C228.659 83.2905 229.077 83.1069 229.591 83.1069C229.963 83.1069 230.279 83.2099 230.537 83.4247C230.79 83.6396 230.963 83.9261 231.043 84.2887L232.423 83.9575C232.267 83.3934 232.031 82.9592 231.718 82.6593C231.187 82.1489 230.499 81.8938 229.655 81.8938C228.688 81.8938 227.912 82.2206 227.317 82.8697C226.726 83.5188 226.426 84.432 226.426 85.6003C226.426 86.7105 226.722 87.5879 227.308 88.2236C227.899 88.8592 228.655 89.1815 229.575 89.1815C230.313 89.1815 230.925 88.9935 231.406 88.6175C231.887 88.237 232.233 87.6595 232.44 86.8896L231.094 86.4688C230.976 86.9791 230.781 87.3596 230.516 87.5969ZM188.923 86.7105V82.0236H187.624V89.0562H189.012L191.81 84.4499V89.0562H193.11V82.0236H191.721L188.923 86.7105ZM233.976 82.8965L234.103 83.1114H233.9L233.807 82.9413C233.731 82.807 233.676 82.7219 233.63 82.6861C233.6 82.6637 233.554 82.6503 233.499 82.6503H233.398V83.1159H233.229H233.225V82.0146H233.584C233.706 82.0146 233.799 82.0281 233.849 82.046C233.908 82.0639 233.946 82.0997 233.98 82.1489C234.014 82.1982 234.027 82.2519 234.027 82.3146C234.027 82.3952 233.997 82.4668 233.946 82.525C233.896 82.5876 233.82 82.619 233.731 82.6235C233.765 82.6414 233.799 82.6593 233.82 82.6861C233.858 82.7219 233.913 82.7936 233.976 82.8965ZM233.795 82.4533C233.828 82.422 233.845 82.3817 233.845 82.3325C233.845 82.3011 233.833 82.2698 233.816 82.2474C233.799 82.225 233.773 82.2027 233.748 82.1937C233.723 82.1848 233.66 82.1758 233.579 82.1758H233.389V82.5026H233.592C233.693 82.4936 233.757 82.4802 233.795 82.4533ZM234.491 82.0281C234.579 82.1937 234.617 82.3638 234.617 82.5429C234.617 82.7219 234.575 82.892 234.491 83.0532C234.402 83.2188 234.288 83.3397 234.132 83.4337C233.976 83.5277 233.82 83.568 233.651 83.568C233.482 83.568 233.322 83.5232 233.17 83.4337C233.014 83.3397 232.9 83.2188 232.811 83.0532C232.723 82.8876 232.685 82.7219 232.685 82.5429C232.685 82.3638 232.727 82.1937 232.811 82.0281C232.9 81.8624 233.018 81.7416 233.174 81.6476C233.33 81.5625 233.486 81.5133 233.647 81.5133C233.807 81.5133 233.972 81.558 234.119 81.6476C234.28 81.7326 234.402 81.8624 234.491 82.0281ZM234.461 82.5429C234.461 82.3952 234.428 82.2474 234.352 82.1131C234.284 81.9788 234.179 81.8669 234.052 81.7953C233.925 81.7237 233.79 81.6834 233.655 81.6834C233.52 81.6834 233.385 81.7192 233.259 81.7953C233.132 81.8669 233.027 81.9744 232.959 82.1131C232.883 82.2474 232.849 82.3952 232.849 82.5429C232.849 82.6906 232.883 82.8294 232.955 82.9726C233.022 83.1069 233.128 83.2099 233.254 83.2905C233.381 83.3621 233.516 83.4068 233.66 83.4068C233.799 83.4068 233.93 83.371 234.065 83.2905C234.191 83.2188 234.297 83.1069 234.364 82.9726C234.432 82.8383 234.461 82.6951 234.461 82.5429Z" fill="white"/>
</g>
<g clip-path="url(#clip2_405_57)">
<path d="M105.085 13.6907H84.0822L83.7983 21.749C83.6326 25.5322 83.2542 28.3951 82.663 30.3369C82.0715 32.2791 81.0544 33.25 79.612 33.25H78.9022V45.3565H86.5654V40.1736H86.5658H100.686V45.3565H108.349V33.25H105.085V13.6907V13.6907ZM96.8538 33.25H89.1906C89.7817 32.1907 90.2197 30.7722 90.5036 28.9938C90.7875 27.2158 90.9765 25.0532 91.071 22.5055L91.1422 20.6139H96.8538V33.25ZM55.5777 41.6906H57.6549C55.3602 44.0101 52.8132 46.0839 50.0469 47.8573L50.0107 47.8803C43.3455 52.114 35.8467 54.3709 28.3254 54.4077C28.2628 54.4082 28.2007 54.4082 28.1386 54.4082C20.8275 54.4082 13.874 52.327 8.01876 48.3837L6.65785 47.4676L6.54135 45.7559C6.44944 44.4045 6.42787 43.0475 6.47403 41.6902H8.37258H9.79562V40.1726V32.1185H9.85776L13.1189 38.6846C12.9066 40.2881 12.8052 41.905 12.8281 43.5238C22.8132 49.4259 35.9295 48.9041 46.7314 42.0509L46.7456 42.0417C49.5015 40.2771 51.9847 38.1738 54.1547 35.8198V40.1731V41.6906H55.5777ZM24.9408 12.1723H19.7328C21.8829 10.0741 24.2457 8.18849 26.7928 6.5564C33.4752 2.30802 40.9727 0.0450928 48.4923 0.000460131C48.5682 0 48.645 0 48.7205 0C56.0204 0 62.9596 2.07473 68.8037 6.00747L69.9191 6.75794C69.9191 6.75794 70.3669 8.5138 70.3669 12.3899C69.4677 12.2478 68.5232 12.1728 67.5338 12.1728H63.9943C64.0047 11.7402 64.0094 11.3068 64.0029 10.8738C54.0179 4.97401 40.8886 5.51007 30.0742 12.3849C28.3565 13.4855 26.7457 14.7182 25.2493 16.0604L26.1546 14.4822L27.4793 12.1732V12.1723H24.9408V12.1723ZM8.37258 40.1736H0V13.6907H8.37258V23.5647H10.927L16.2131 13.6907H24.9408L17.5615 26.5537L24.905 40.1736H15.4684L10.7143 30.6019H8.37258V40.1736ZM134.397 13.0088C127.15 13.0088 121.254 19.2965 121.254 27.0244C121.254 34.7528 127.15 41.04 134.397 41.04C141.644 41.04 147.54 34.7528 147.54 27.0244C147.54 19.296 141.644 13.0088 134.397 13.0088ZM134.397 32.8639C131.378 32.8639 128.921 30.2444 128.921 27.0244C128.921 23.8044 131.378 21.1844 134.397 21.1844C137.417 21.1844 139.873 23.8044 139.873 27.0244C139.873 30.2444 137.417 32.8639 134.397 32.8639ZM150.661 13.872H174.679V40.3549H166.448V20.7956H158.891V40.3549H150.661V13.872ZM178.542 13.872H201.319V20.7956H194.045V40.3549H185.815V20.7956H178.542V13.872ZM222.51 13.872H230.386V40.3549H222.156V26.6218L213.641 40.3549H205.73V13.872H213.96V27.6433L222.51 13.872ZM279.144 13.872H270.913L260.517 39.2335L253.778 26.735L261.157 13.872H252.429L247.143 23.7464H244.589V13.872H236.216V40.3549H244.589V30.7832H246.93L251.684 40.3549H260.057H261.121H268.571L270.239 35.7393H279.676L281.343 40.3549H290L279.144 13.872ZM272.545 29.308L274.957 22.6495L277.37 29.308H272.545V29.308ZM34.8348 23.215C34.0064 24.2388 33.5037 25.5699 33.5037 27.0249C33.5037 30.2449 35.9606 32.8648 38.9801 32.8648C41.9997 32.8648 44.4566 30.2449 44.4566 27.0249C44.4566 23.8049 41.9997 21.1849 38.9801 21.1849V13.0088C46.2274 13.0088 52.1232 19.296 52.1232 27.0244C52.1232 34.7523 46.2274 41.04 38.9801 41.04C31.7329 41.04 25.837 34.7523 25.837 27.0244C25.837 23.4653 27.0896 20.214 29.1465 17.7394L34.8348 23.215ZM73.5289 14.9018C71.8258 14.0947 69.8272 13.6912 67.5334 13.6912H55.5777V40.1736H63.9503V33.6664H67.5334C69.8272 33.6664 71.8262 33.2633 73.5289 32.4558C75.232 31.6492 76.5445 30.4887 77.4671 28.9754C78.3892 27.462 78.8504 25.6969 78.8504 23.6788C78.8504 21.6611 78.3892 19.8956 77.4671 18.3822C76.5445 16.8689 75.232 15.7093 73.5289 14.9018ZM69.5557 25.967C68.9879 26.5095 68.1366 26.7805 67.0013 26.7805H63.9503V20.5761H67.0013C68.1366 20.5761 68.9879 20.8476 69.5557 21.3896C70.1232 21.9321 70.4071 22.6946 70.4071 23.6783C70.4071 24.6621 70.1232 25.425 69.5557 25.967Z" fill="white"/>
</g>
<defs>
<clipPath id="clip0_405_57">
<rect width="100.998" height="27.2041" fill="white" transform="translate(35.4379 62)"/>
</clipPath>
<clipPath id="clip1_405_57">
<rect width="104.542" height="34.7959" fill="white" transform="translate(153.564 58.2041)"/>
</clipPath>
<clipPath id="clip2_405_57">
<rect width="290" height="54.4082" fill="white"/>
</clipPath>
</defs>
</svg>
