<svg width="29" height="29" viewBox="0 0 29 29" fill="none" xmlns="http://www.w3.org/2000/svg">
<path d="M14.4943 15.0243C10.598 15.0294 7.36328 11.8785 7.36385 7.89209C7.36442 3.9652 10.504 0.758772 14.4943 0.755374C18.4818 0.751975 21.6373 3.9533 21.6322 7.89946C21.6271 11.9056 18.381 15.035 14.4943 15.0243ZM14.5017 10.8057C16.0661 10.8068 17.413 9.56412 17.4136 7.89662C17.4147 6.211 16.0616 4.97114 14.4949 4.9802C12.8806 4.98926 11.5785 6.28406 11.5785 7.88699C11.5779 9.49615 12.8897 10.8057 14.5017 10.8057Z" fill="white"/>
<path d="M14.3997 23.6397C14.2162 23.8317 14.0367 24.0158 13.8611 24.2033C12.7974 25.3384 11.7393 26.4786 10.6694 27.6074C10.1307 28.1755 9.46182 28.3851 8.70397 28.1749C7.96197 27.9688 7.48563 27.4681 7.31287 26.7136C7.15768 26.0385 7.33893 25.4341 7.81018 24.9357C8.87899 23.8057 9.96139 22.6876 11.0376 21.5644C11.3066 21.2835 11.5734 21.0008 11.8526 20.7069C11.6006 20.6468 11.3615 20.5942 11.1248 20.5324C9.84697 20.1988 8.6411 19.6975 7.52754 18.9833C7.13049 18.729 6.77139 18.4435 6.55899 18.0011C5.99088 16.8168 6.72551 15.4234 8.02655 15.2224C8.54821 15.1419 9.02229 15.2552 9.44539 15.556C10.184 16.081 11.0007 16.4311 11.8662 16.6797C12.5431 16.874 13.233 16.9788 13.937 17.0156C15.5156 17.0989 17.0137 16.7992 18.4269 16.0941C18.7203 15.9479 19.0029 15.7729 19.2691 15.5815C20.4716 14.7149 22.1391 15.3861 22.3663 16.8411C22.4931 17.6511 22.2003 18.3002 21.5416 18.7726C20.2938 19.6669 18.8987 20.2356 17.4136 20.5976C17.3077 20.6236 17.2006 20.6474 17.0483 20.7193C17.106 20.7584 17.1717 20.789 17.2205 20.8371C18.573 22.175 19.9228 23.5151 21.2748 24.853C21.6809 25.2551 21.9086 25.7405 21.8978 26.3103C21.878 27.3412 21.1247 28.0979 20.2286 28.2231C19.571 28.3148 19.0126 28.1189 18.5447 27.6652C17.195 26.3562 15.8509 25.0416 14.5045 23.7292C14.4734 23.6998 14.4394 23.6737 14.3997 23.6397Z" fill="white"/>
</svg>
