<svg width="149" height="151" viewBox="0 0 149 151" fill="none" xmlns="http://www.w3.org/2000/svg">
<path d="M134.594 45.8384C139.025 45.8384 143.458 45.8384 147.94 45.8384C147.94 50.3115 147.94 54.7587 147.94 59.262C146.488 59.262 145.038 59.262 143.534 59.262C143.534 60.769 143.534 62.2213 143.534 63.7287C142.03 63.7287 140.581 63.7287 139.054 63.7287C139.054 66.7533 139.054 69.7226 139.054 72.6918L139.075 72.672C137.59 72.6692 136.104 72.6665 134.619 72.6637C134.619 71.1855 134.619 69.7075 134.619 68.1738C133.059 68.1738 131.609 68.1738 130.104 68.1738C130.104 66.6641 130.104 65.2107 130.104 63.7844C128.597 63.7844 127.147 63.7844 125.688 63.7844C125.688 66.7841 125.688 69.7376 125.688 72.6908C124.213 72.6908 122.738 72.6908 121.244 72.6908C121.244 74.1975 121.244 75.647 121.244 77.1034C122.736 77.1034 124.2 77.1034 125.667 77.1034C125.667 75.5923 125.667 74.1311 125.667 72.6702C128.658 72.6607 131.648 72.6511 134.638 72.6422C134.637 75.6306 134.637 78.6183 134.637 81.6354C136.156 81.6354 137.615 81.6354 139.075 81.6354L139.054 81.6152C139.054 83.0905 139.054 84.5653 139.054 86.1072C140.593 86.1072 142.065 86.1072 143.537 86.1072L143.516 86.0871C143.516 89.0392 143.516 91.991 143.516 94.9917C142.063 94.9917 140.614 94.9917 139.108 94.9917C139.108 93.5756 139.108 92.1233 139.108 90.6197C137.606 90.6197 136.156 90.6197 134.628 90.6197C134.628 93.5346 134.628 96.4932 134.628 99.5028C130.128 99.5028 125.707 99.5028 121.204 99.5028C121.204 101.034 121.204 102.514 121.204 103.994L121.224 103.974C119.751 103.974 118.276 103.974 116.726 103.974C116.726 102.456 116.726 100.988 116.726 99.5008C115.193 99.5008 113.736 99.5008 112.279 99.5008L112.3 99.5213C112.3 98.044 112.3 96.5671 112.3 95.0505C109.268 95.0505 106.311 95.0505 103.353 95.0505C103.353 92.082 103.353 89.1131 103.353 86.0894C101.85 86.0894 100.401 86.0894 98.9315 86.0894C98.9315 84.5824 98.9315 83.1311 98.9315 81.6016C101.912 81.6016 104.864 81.6016 107.78 81.6016C107.78 78.5824 107.78 75.6419 107.78 72.6702C106.273 72.6702 104.814 72.6702 103.354 72.6702L103.375 72.6908C103.375 71.2094 103.375 69.728 103.375 68.2491C106.379 68.2491 109.316 68.2491 112.31 68.2491C112.31 69.741 112.31 71.1947 112.31 72.6415C113.818 72.6415 115.269 72.6415 116.775 72.6415C116.775 71.1482 116.775 69.6945 116.775 68.1848C118.283 68.1848 119.734 68.1848 121.172 68.1848C121.172 65.183 121.172 62.2394 121.172 59.3092C119.679 59.3092 118.229 59.3092 116.723 59.3092C116.723 60.8053 116.723 62.2589 116.723 63.6941C115.214 63.6941 113.764 63.6941 112.257 63.6941C112.257 62.197 112.257 60.743 112.257 59.2548C110.739 59.2548 109.278 59.2548 107.817 59.2548L107.837 59.2753C107.837 56.2876 107.837 53.3003 107.837 50.3126L107.817 50.3327C109.291 50.3327 110.765 50.3327 112.299 50.3327C112.299 47.2958 112.299 44.3324 112.299 41.3689L112.279 41.3898C113.739 41.3898 115.199 41.3898 116.713 41.3898C116.713 44.3413 116.713 47.2828 116.713 50.2732C118.214 50.2732 119.664 50.2732 121.193 50.2732C121.193 47.3519 121.193 44.3929 121.193 41.3806C124.207 41.3806 127.142 41.3806 130.133 41.3806C130.133 39.8753 130.133 38.4226 130.133 36.9392C133.124 36.9392 136.059 36.9392 139.029 36.9392C139.029 38.4035 139.029 39.8551 139.029 41.3635C137.573 41.3635 136.124 41.3635 134.613 41.3635C134.613 42.8989 134.613 44.3789 134.613 45.8589C131.652 45.8589 128.691 45.8589 125.704 45.8589C125.704 47.3625 125.704 48.8131 125.704 50.3437C127.196 50.3437 128.663 50.3437 130.18 50.3437C130.18 51.8747 130.18 53.3263 130.18 54.7837C131.693 54.7837 133.152 54.7837 134.61 54.7837C134.61 56.2606 134.61 57.7379 134.61 59.2151C136.127 59.2151 137.59 59.2151 139.053 59.2151C139.053 57.7044 139.053 56.2449 139.053 54.7851C140.528 54.7851 142.003 54.7851 143.498 54.7851C143.498 53.2787 143.498 51.8292 143.498 50.3724C142.005 50.3724 140.541 50.3724 139.074 50.3724C139.074 51.8835 139.074 53.3444 139.074 54.8056C137.579 54.8052 136.085 54.8046 134.59 54.8042C134.592 51.8158 134.593 48.8271 134.594 45.8384ZM116.788 90.5305C116.788 92.0293 116.788 93.5284 116.788 94.993C118.301 94.993 119.75 94.993 121.206 94.993C121.206 93.4826 121.206 92.02 121.206 90.5575C122.682 90.5575 124.158 90.5575 125.689 90.5575C125.689 92.0905 125.689 93.5424 125.689 95.0095C127.192 95.0095 128.641 95.0095 130.089 95.0095C130.089 92.0211 130.089 89.0642 130.089 86.1442C127.103 86.1442 124.169 86.1442 121.226 86.1442C121.226 87.6536 121.226 89.1158 121.226 90.578C119.741 90.5688 118.256 90.5595 116.77 90.5503C116.77 89.0747 116.77 87.5992 116.77 86.1363C115.219 86.1363 113.773 86.1363 112.325 86.1363C112.325 87.6255 112.325 89.0754 112.325 90.5284C113.837 90.5288 115.313 90.5288 116.788 90.5305ZM112.307 81.5851C113.821 81.5851 115.27 81.5851 116.713 81.5851C116.713 80.0918 116.713 78.6392 116.713 77.194C115.223 77.194 113.773 77.194 112.307 77.194C112.307 78.6696 112.307 80.1051 112.307 81.5851Z" fill="white"/>
<path d="M40.9016 27.9735C40.9016 26.5106 40.9016 25.0477 40.9016 23.5287C42.3594 23.5287 43.809 23.5287 45.3057 23.5287C45.3057 20.5321 45.3057 17.5909 45.3057 14.5988C43.8933 14.5988 42.444 14.5988 40.9132 14.5988C40.9132 16.0251 40.9132 17.4955 40.9132 18.9912C39.3834 18.9912 37.9348 18.9912 36.4572 18.9912C36.4572 16.022 36.4572 13.0812 36.4572 10.0859C39.4134 10.0859 42.3484 10.0859 45.3391 10.0859C45.3391 8.58096 45.3391 7.12832 45.3391 5.61514C46.8713 5.61514 48.3482 5.61514 49.8255 5.61514L49.8054 5.59428C49.8054 7.0712 49.8054 8.54846 49.8054 10.025C51.3417 10.025 52.8042 10.025 54.288 10.025C54.288 8.51392 54.288 7.0541 54.288 5.59428L54.2682 5.61514C55.7294 5.61514 57.1902 5.61514 58.7091 5.61514C58.7091 4.12762 58.7091 2.67396 58.7091 1.17651C63.1914 1.17651 67.6163 1.17651 72.0993 1.17651C72.0993 5.59394 72.0993 10.0285 72.0993 14.5205C73.6059 14.5205 75.0565 14.5205 76.5645 14.5205C76.5645 16.0302 76.5645 17.4839 76.5645 18.9782C78.0714 18.9782 79.5214 18.9782 81.0297 18.9782C81.0297 17.5345 81.0297 16.0808 81.0297 14.5701C84.0245 14.5701 86.9622 14.5701 89.9574 14.5701C89.9574 13.0603 89.9574 11.6063 89.9574 10.0955C91.4643 10.0955 92.9149 10.0955 94.4519 10.0955C94.4519 8.55702 94.4519 7.07565 94.4519 5.59428L94.4314 5.6148C95.8896 5.6148 97.3477 5.6148 98.8595 5.6148C98.8595 4.13822 98.8595 2.68764 98.8595 1.18472C100.376 1.18472 101.84 1.18472 103.377 1.18472C103.377 4.15225 103.377 7.11806 103.377 10.0842C101.9 10.0842 100.424 10.0842 98.9318 10.0842C98.9318 13.0842 98.9318 16.0237 98.9318 18.968C100.426 18.968 101.891 18.968 103.357 18.968C103.357 15.9652 103.357 13.0145 103.357 10.0637C104.816 10.0637 106.274 10.0637 107.785 10.0637C107.785 13.0343 107.785 15.9741 107.785 18.994C109.3 18.994 110.766 18.994 112.261 18.994C112.261 20.5249 112.261 21.9759 112.261 23.4815C110.794 23.4815 109.345 23.4815 107.817 23.4815C107.817 25.0149 107.817 26.4942 107.817 27.9735L107.838 27.9533C106.362 27.9533 104.887 27.9533 103.414 27.9533C103.414 32.4751 103.414 36.9185 103.414 41.3889C104.921 41.3889 106.38 41.3889 107.838 41.3889L107.818 41.3687C107.818 44.3568 107.818 47.3445 107.818 50.3325L107.838 50.3124C106.363 50.3124 104.889 50.3124 103.337 50.3124C103.337 51.8536 103.337 53.3213 103.337 54.8379C101.813 54.8379 100.366 54.8379 98.8827 54.8379C98.8827 57.069 98.8827 59.2471 98.8827 61.4255C98.824 61.3034 98.7181 61.1827 98.7147 61.0589C98.6956 60.3772 98.3195 59.9862 97.7467 59.6801C96.6296 59.0829 95.5356 58.4426 94.4321 57.8204C94.4321 55.3304 94.4321 52.8404 94.4321 50.2936C95.9759 50.2936 97.4269 50.2936 98.8591 50.2936C98.8591 48.7821 98.8591 47.3291 98.8591 45.819C97.3651 45.819 95.9142 45.819 94.4298 45.819C94.4298 44.2969 94.4298 42.833 94.4298 41.3687C95.9067 41.3687 97.3839 41.3687 98.8755 41.3687C98.8755 35.3885 98.8755 29.4696 98.8755 23.4692C97.3825 23.4692 95.9152 23.4692 94.396 23.4692C94.396 21.9358 94.396 20.4836 94.396 19.0665C91.4053 19.0665 88.4706 19.0665 85.5266 19.0665C85.5266 20.5759 85.5266 22.0388 85.5266 23.5014C84.0545 23.5014 82.582 23.5014 81.0631 23.5014C81.0631 25.0234 81.0631 26.4986 81.0631 27.9742C79.5692 27.9742 78.0749 27.9742 76.5809 27.9742C76.5809 26.4969 76.5809 25.02 76.5809 23.5424C75.0651 23.5424 73.6025 23.5424 72.1392 23.5424C72.1392 25.0532 72.1392 26.5133 72.1392 27.9732C70.665 27.9732 69.1909 27.9732 67.717 27.9732C67.717 29.4925 67.717 30.9585 67.717 32.4251C69.2253 32.4251 70.6821 32.4251 72.1392 32.4251C72.1392 33.9024 72.1392 35.3797 72.1392 36.8969C69.1079 36.8969 66.1507 36.8969 63.1935 36.8969L63.2143 36.9168C63.2143 33.9534 63.2143 30.9899 63.2143 27.9523C61.6793 27.9523 60.2052 27.9523 58.731 27.9523L58.7511 27.9732C58.7511 25.0032 58.7511 22.033 58.7511 19.0083C61.7469 19.0083 64.6827 19.0083 67.6365 19.0083C67.6365 14.5218 67.6365 10.0904 67.6365 5.63293C66.1579 5.63293 64.7089 5.63293 63.1795 5.63293C63.1795 8.62064 63.1795 11.58 63.1795 14.5916C58.6767 14.5916 54.2545 14.5916 49.8641 14.5916C49.8641 16.0983 49.8641 17.5506 49.8641 19.0579C51.3615 19.0579 52.8114 19.0579 54.2685 19.0579C54.2685 22.0675 54.2685 25.0203 54.2685 27.9732L54.2883 27.9523C52.8298 27.9523 51.371 27.9523 49.8043 27.9523C49.8043 33.9404 49.8043 39.9004 49.8043 45.8604L49.8248 45.8399C46.8816 45.8399 43.938 45.8399 40.9019 45.8399C40.9019 41.3688 40.9019 36.8969 40.9019 32.4251L40.8811 32.4453C42.3549 32.4453 43.8291 32.4453 45.3026 32.4453C45.3026 30.9058 45.3026 29.4402 45.3026 27.9533C43.7946 27.9533 42.3379 27.9533 40.8811 27.9533L40.9016 27.9735Z" fill="white"/>
<path d="M49.8245 126.333C48.365 126.333 46.9055 126.333 45.3903 126.333C45.3903 124.872 45.3903 123.419 45.3903 121.914C42.401 121.914 39.4663 121.914 36.48 121.914C36.48 118.904 36.48 115.946 36.48 112.933C37.93 112.933 39.3793 112.933 40.8589 112.933C40.8589 111.426 40.8589 109.975 40.8589 108.446C37.8808 108.446 34.9181 108.446 31.9558 108.446L31.9759 108.466C31.9759 106.99 31.9759 105.513 31.9759 103.959C30.441 103.959 28.9767 103.959 27.4926 103.959C27.4926 102.423 27.4926 100.963 27.4926 99.5037C28.9678 99.5037 30.4427 99.5037 31.937 99.5037C31.937 97.997 31.937 96.5474 31.937 95.091C30.4441 95.091 28.9805 95.091 27.5131 95.091C27.5131 96.6021 27.5131 98.063 27.5131 99.5242C26.0191 99.517 24.5248 99.5098 23.0308 99.5026L23.0517 99.5228C23.0517 98.0626 23.0517 96.6028 23.0517 95.0295C20.0548 95.0295 17.0805 95.0295 14.1059 95.0295L14.1264 95.05C14.1264 93.5884 14.1264 92.1269 14.1264 90.611C15.5808 90.611 17.029 90.611 18.5278 90.611C18.5278 89.09 18.5278 87.6226 18.5278 86.0999C17.0741 86.0999 15.6258 86.0999 14.1247 86.0999C14.1247 84.5956 14.1247 83.1443 14.1247 81.6147C12.5955 81.6147 11.1197 81.6147 9.64377 81.6147L9.66357 81.6356C9.66357 80.1381 9.66357 78.641 9.66357 77.1436L9.64377 77.1644C12.5887 77.1644 15.5337 77.1644 18.5288 77.1644C18.5288 75.6896 18.5288 74.238 18.5288 72.7053C17.1055 72.7053 15.6384 72.7053 14.1213 72.7053C14.1213 69.6848 14.1213 66.7446 14.1213 63.7497C12.6215 63.7497 11.1726 63.7497 9.66459 63.7497C9.66459 62.2157 9.66459 60.736 9.66459 59.2563L9.64377 59.2765C12.6256 59.2765 15.607 59.2765 18.5889 59.2765L18.568 59.2563C18.568 62.2071 18.568 65.1582 18.568 68.1596C20.0388 68.1596 21.4874 68.1596 23.0169 68.1596C23.0169 66.735 23.0169 65.2649 23.0169 63.749C27.5442 63.749 31.9916 63.749 36.4387 63.749L36.4186 63.7282C36.4186 66.7087 36.4186 69.6895 36.4186 72.693C34.8704 72.693 33.4132 72.693 31.9561 72.693C31.9561 71.2157 31.9561 69.7388 31.9561 68.2612C30.4403 68.2612 28.9777 68.2612 27.5145 68.2612C27.5145 69.772 27.5145 71.2321 27.5145 72.692C26.0403 72.692 24.5661 72.692 23.0923 72.692C23.0923 74.2113 23.0923 75.6773 23.0923 77.1439C24.6006 77.1439 26.0574 77.1439 27.5145 77.1439C27.5141 78.6417 27.5138 80.1395 27.5135 81.6373C26.0369 81.6373 24.5607 81.6373 23.0715 81.6373C23.0715 84.6363 23.0715 87.5761 23.0715 90.5183C26.0529 90.5183 29.0037 90.5183 31.9169 90.5183C31.9169 89.0154 31.9169 87.5638 31.9169 86.0588C30.4192 86.0588 28.9706 86.0588 27.493 86.0588C27.493 84.5415 27.493 83.0793 27.493 81.6168C28.9651 81.6168 30.4376 81.6168 31.9561 81.6168C31.9561 80.0937 31.9561 78.6185 31.9561 77.1432C34.9178 77.1432 37.8798 77.1432 40.8961 77.1432C40.8961 75.639 40.8961 74.187 40.8961 72.6591C43.9015 72.6591 46.8529 72.6591 49.8262 72.6591C49.8262 69.6307 49.8262 66.6796 49.8262 63.7288L49.8064 63.7497C51.3004 63.7497 52.7947 63.7497 54.2886 63.7497L54.2685 63.7288C54.2685 65.216 54.2685 66.7035 54.2685 68.226C54.9604 68.226 55.5515 68.226 56.1427 68.226C56.013 68.425 55.8925 68.6306 55.7526 68.8218C53.8767 71.3857 52.4015 74.16 51.3792 77.1727C49.3773 77.1727 47.3755 77.1727 45.3634 77.1727C45.3634 78.7105 45.3634 80.1737 45.3634 81.6369C43.8875 81.6369 42.4112 81.6369 40.8818 81.6369C40.8818 83.1457 40.8818 84.5969 40.8818 86.1012C39.3803 86.1012 37.9317 86.1012 36.48 86.1012C36.48 87.624 36.48 89.0917 36.48 90.5587C39.4755 90.5587 42.4194 90.5587 45.3634 90.5587C45.3634 92.0359 45.3634 93.5135 45.3634 95.0315C48.3742 95.0315 51.3317 95.0315 54.2893 95.0315C54.2893 96.5098 54.2893 97.9877 54.2893 99.5238C49.7688 99.5238 45.3255 99.5238 40.8821 99.5238C40.8821 98.0455 40.8821 96.5676 40.8821 95.0702C39.3786 95.0702 37.932 95.0702 36.4787 95.0702C36.4787 96.5662 36.4787 98.0329 36.4787 99.5033C37.9867 99.5033 39.4448 99.5033 40.9026 99.5033C40.9026 100.983 40.9026 102.464 40.9026 103.995C45.3838 103.995 49.805 103.995 54.3054 103.995C54.3054 107.004 54.3054 109.963 54.3054 112.879C57.3199 112.879 60.2547 112.879 63.2447 112.879C63.2447 111.377 63.2447 109.924 63.2447 108.468C66.2466 108.468 69.1926 108.468 72.1382 108.468L72.1177 108.448C72.1177 109.926 72.1177 111.404 72.1177 112.934C73.6414 112.934 75.0886 112.934 76.5809 112.934C76.5809 115.952 76.5809 118.917 76.5809 121.882L76.6007 121.861C75.1395 121.861 73.6786 121.861 72.1597 121.861C72.1597 120.395 72.1597 118.941 72.1597 117.444C70.6531 117.444 69.2028 117.444 67.6945 117.444C67.6945 120.371 67.6945 123.315 67.6945 126.301C66.1875 126.301 64.7376 126.301 63.2293 126.301C63.2293 124.861 63.2293 123.408 63.2293 121.897C61.7227 121.897 60.2721 121.897 58.7641 121.897C58.7641 120.387 58.7641 118.933 58.7641 117.44C57.2571 117.44 55.8072 117.44 54.2989 117.44C54.2989 118.888 54.2989 120.342 54.2989 121.852C52.7923 121.852 51.3413 121.852 49.8043 121.852C49.8043 123.391 49.8043 124.872 49.8043 126.354L49.8245 126.333ZM45.3695 117.358C46.8867 117.358 48.3366 117.358 49.7739 117.358C49.7739 114.372 49.7739 111.43 49.7739 108.498C48.282 108.498 46.8324 108.498 45.3695 108.498C45.3695 111.466 45.3695 114.392 45.3695 117.358Z" fill="white"/>
<path d="M121.204 103.995C122.662 103.995 124.12 103.995 125.657 103.995C125.657 105.465 125.657 106.933 125.657 108.468C128.694 108.468 131.653 108.468 134.613 108.468L134.592 108.448C134.592 112.888 134.592 117.329 134.592 121.825C136.061 121.825 137.511 121.825 139.012 121.825C139.012 123.348 139.012 124.817 139.012 126.34C136.074 126.34 133.139 126.34 130.149 126.34C130.149 127.844 130.149 129.296 130.149 130.803C128.646 130.803 127.197 130.803 125.666 130.803C125.666 132.338 125.666 133.818 125.666 135.297L125.687 135.277C124.228 135.277 122.769 135.277 121.256 135.277C121.256 133.819 121.256 132.368 121.256 130.866C118.253 130.866 115.303 130.866 112.299 130.866C112.299 132.316 112.299 133.768 112.299 135.276C110.77 135.276 109.294 135.276 107.818 135.276L107.838 135.296C107.838 133.834 107.838 132.372 107.838 130.855C106.362 130.855 104.913 130.855 103.387 130.855C103.387 127.845 103.387 124.888 103.387 121.902C100.377 121.902 97.4437 121.902 94.4294 121.902C94.4294 123.395 94.4294 124.875 94.4294 126.354L94.4503 126.334C92.9761 126.334 91.5019 126.334 89.9677 126.334C89.9677 123.317 89.9677 120.353 89.9677 117.389C92.9307 117.389 95.8937 117.389 98.9124 117.389C98.9124 115.88 98.9124 114.428 98.9124 112.96C100.417 112.96 101.866 112.96 103.37 112.96C103.37 114.443 103.37 115.896 103.37 117.371C104.875 117.371 106.323 117.371 107.851 117.371C107.851 114.383 107.851 111.425 107.851 108.415C112.352 108.415 116.773 108.415 121.225 108.415C121.225 106.9 121.225 105.437 121.225 103.974L121.204 103.995ZM125.637 126.328C125.637 121.827 125.637 117.394 125.637 112.969C121.171 112.969 116.747 112.969 112.332 112.969C112.332 117.444 112.332 121.878 112.332 126.328C116.78 126.328 121.187 126.328 125.637 126.328Z" fill="white"/>
<path d="M31.9654 32.4352C29.7526 32.4352 27.6213 32.4358 25.4904 32.4352C20.7904 32.4338 16.09 32.4406 11.39 32.4276C6.29197 32.4136 1.99129 28.9187 0.940007 23.9259C0.797675 23.2497 0.742039 22.5444 0.737943 21.8518C0.717805 18.4879 0.718487 15.1232 0.730775 11.7593C0.752278 5.8988 5.41955 1.18619 11.2664 1.13899C14.6476 1.11197 18.0291 1.11265 21.4103 1.13831C27.266 1.18277 31.9445 5.88067 31.9609 11.7429C31.9797 18.4714 31.9654 25.2 31.9654 31.9289C31.9654 32.0699 31.9654 32.2111 31.9654 32.4352ZM27.2742 27.7379C27.2742 27.4575 27.2742 27.2481 27.2742 27.0388C27.2742 22.0666 27.2076 17.093 27.2964 12.1222C27.3612 8.48255 24.5716 5.77806 21.1027 5.82184C17.939 5.86186 14.7742 5.80508 11.6105 5.83689C7.85933 5.87485 5.42979 8.35258 5.42125 12.1013C5.41409 15.2241 5.41306 18.3466 5.42603 21.4694C5.42842 22.0184 5.44822 22.5817 5.56973 23.1132C6.20903 25.9108 8.5297 27.702 11.5494 27.7184C15.72 27.7414 19.891 27.7332 24.0617 27.7379C25.1095 27.739 26.157 27.7379 27.2742 27.7379Z" fill="white"/>
<path d="M116.753 32.4134C116.753 32.136 116.753 31.9011 116.753 31.6664C116.753 25.1301 116.751 18.5937 116.753 12.0574C116.756 5.77892 121.376 1.14293 127.641 1.1337C130.806 1.12925 133.971 1.12788 137.137 1.13404C143.353 1.14567 147.984 5.79226 147.99 12.0211C147.993 15.2411 147.996 18.4614 147.989 21.6813C147.974 27.7145 143.295 32.4172 137.282 32.4275C130.52 32.4394 123.757 32.4326 116.995 32.4336C116.948 32.4336 116.9 32.4261 116.753 32.4134ZM121.444 27.7132C121.654 27.7238 121.792 27.7371 121.93 27.7371C127.035 27.733 132.141 27.7521 137.246 27.7149C140.811 27.6889 143.271 25.1828 143.294 21.6067C143.315 18.3882 143.305 15.1692 143.293 11.9507C143.291 11.4499 143.262 10.9362 143.15 10.4505C142.495 7.60746 140.17 5.85212 137.028 5.83433C133.936 5.81689 130.843 5.88495 127.752 5.8162C124.204 5.73753 121.336 8.44853 121.418 12.201C121.525 17.123 121.444 22.0487 121.444 26.973C121.444 27.2052 121.444 27.4382 121.444 27.7132Z" fill="white"/>
<path d="M31.9657 117.434C31.9657 117.708 31.9657 117.944 31.9657 118.18C31.9657 124.692 31.9671 131.204 31.9654 137.717C31.9637 144.089 27.3616 148.697 20.9925 148.702C17.8509 148.705 14.7097 148.709 11.5682 148.702C5.35675 148.687 0.733173 144.034 0.729077 137.8C0.727029 134.58 0.722933 131.36 0.730101 128.14C0.743413 122.113 5.42911 117.416 11.4473 117.407C18.2097 117.398 24.9723 117.403 31.7346 117.403C31.7807 117.402 31.8268 117.415 31.9657 117.434ZM27.2742 122.112C21.9823 122.112 16.8058 122.102 11.6296 122.116C7.9003 122.126 5.43082 124.618 5.4216 128.356C5.41375 131.503 5.41375 134.65 5.42604 137.796C5.42809 138.322 5.44789 138.86 5.56291 139.369C6.20392 142.206 8.5437 143.981 11.6743 144.001C14.7903 144.02 17.9066 144.012 21.0225 143.999C21.5464 143.997 22.0833 143.967 22.5916 143.852C25.4747 143.198 27.2606 140.921 27.2701 137.865C27.2858 132.796 27.2745 127.728 27.2745 122.66C27.2742 122.498 27.2742 122.337 27.2742 122.112Z" fill="white"/>
<path d="M58.7511 139.768C58.7511 138.306 58.7511 136.844 58.7511 135.326C60.2076 135.326 61.6561 135.326 63.16 135.326C63.16 133.822 63.16 132.37 63.16 130.84C66.1647 130.84 69.1161 130.84 72.1218 130.84C72.1218 129.312 72.1218 127.86 72.1218 126.354C73.6243 126.354 75.0729 126.354 76.6003 126.354C76.6003 124.82 76.6003 123.34 76.6003 121.861L76.5805 121.881C78.0544 121.881 79.5286 121.881 81.0785 121.881C81.0785 120.343 81.0785 118.876 81.0785 117.388C82.6121 117.388 84.0689 117.388 85.5256 117.388C85.5188 121.867 85.5123 126.346 85.5055 130.825L85.5253 130.804C84.0654 130.804 82.6056 130.804 81.0898 130.804C81.0898 132.287 81.0898 133.739 81.0898 135.246C78.0998 135.246 75.1644 135.246 72.1515 135.246C72.1515 139.746 72.1515 144.194 72.1515 148.672C69.139 148.672 66.2043 148.672 63.2153 148.672C63.2153 145.713 63.2153 142.772 63.2153 139.747C61.6851 139.747 60.2079 139.747 58.731 139.747L58.7511 139.768Z" fill="white"/>
<path d="M54.288 63.7492C54.288 60.7977 54.288 57.8459 54.288 54.8391C55.7396 54.8391 57.1889 54.8391 58.7112 54.8391C58.7112 48.849 58.7112 42.9136 58.7112 36.9173C60.2605 36.9173 61.7374 36.9173 63.214 36.9173L63.1931 36.8975C63.1931 41.3563 63.1931 45.8147 63.1931 50.3509C67.7058 50.3509 72.1444 50.3509 76.5393 50.3509C76.5393 51.8811 76.5393 53.3334 76.5393 54.8357C72.0665 54.8357 67.6454 54.8357 63.2143 54.8357C63.2143 56.3509 63.2143 57.8138 63.2143 59.2767C61.7401 59.2767 60.2663 59.2767 58.716 59.2767C58.716 60.795 58.716 62.262 58.716 63.7283C57.1824 63.7283 55.7253 63.7283 54.2685 63.7283L54.288 63.7492Z" fill="white"/>
<path d="M103.325 139.723C103.325 141.205 103.325 142.687 103.325 144.221C109.326 144.221 115.235 144.221 121.18 144.221C121.18 145.726 121.18 147.178 121.18 148.666C110.804 148.666 100.435 148.666 90.0222 148.666C90.0222 147.225 90.0222 145.772 90.0222 144.263C91.452 144.263 92.902 144.263 94.4079 144.263C94.4079 142.755 94.4079 141.302 94.4079 139.742C97.4249 139.742 100.386 139.742 103.348 139.743C103.349 139.744 103.325 139.723 103.325 139.723Z" fill="white"/>
<path d="M143.517 130.806C143.517 132.269 143.517 133.732 143.517 135.251C144.997 135.251 146.447 135.251 147.943 135.251C147.943 138.248 147.943 141.189 147.943 144.185C145.041 144.185 142.106 144.185 139.089 144.185C139.089 145.707 139.089 147.177 139.089 148.674C137.559 148.674 136.11 148.674 134.632 148.674C134.632 145.706 134.632 142.765 134.632 139.768C136.1 139.768 137.55 139.768 139.052 139.768C139.052 136.771 139.052 133.829 139.052 130.827C140.583 130.827 142.06 130.827 143.537 130.827L143.517 130.806Z" fill="white"/>
<path d="M49.804 126.354C52.7507 126.354 55.6973 126.354 58.6921 126.354C58.6921 127.813 58.6921 129.265 58.6921 130.774C57.2759 130.774 55.8263 130.774 54.3204 130.774C54.3204 132.281 54.3204 133.734 54.3204 135.237C48.339 135.237 42.4137 135.237 36.4582 135.237C36.4582 132.292 36.4582 129.35 36.4582 126.376C37.9263 126.376 39.3752 126.376 40.8804 126.376C40.8804 127.843 40.8804 129.296 40.8804 130.782C43.8721 130.782 46.8075 130.782 49.8241 130.782C49.8241 129.294 49.8241 127.814 49.8241 126.333C49.8245 126.333 49.804 126.354 49.804 126.354Z" fill="white"/>
<path d="M14.0759 108.42C14.0759 109.902 14.0759 111.384 14.0759 112.896C9.64276 112.896 5.2209 112.896 0.76355 112.896C0.76355 106.963 0.76355 101.042 0.76355 95.0813C2.21042 95.0813 3.65935 95.0813 5.1622 95.0813C5.1622 99.5042 5.1622 103.936 5.1622 108.439C8.17575 108.439 11.1367 108.439 14.0984 108.44C14.0994 108.441 14.0759 108.42 14.0759 108.42Z" fill="white"/>
<path d="M58.731 139.748C58.731 142.7 58.731 145.653 58.731 148.654C57.2756 148.654 55.8267 148.654 54.3207 148.654C54.3207 147.236 54.3207 145.784 54.3207 144.281C52.8172 144.281 51.3679 144.281 49.8624 144.281C49.8624 145.692 49.8624 147.144 49.8624 148.65C46.8546 148.65 43.9028 148.65 40.9207 148.65C40.9207 147.196 40.9207 145.744 40.9207 144.236C42.3921 144.236 43.8417 144.236 45.3463 144.236C45.3463 142.728 45.3463 141.276 45.3463 139.768C49.8518 139.768 54.3016 139.768 58.7515 139.768C58.7511 139.768 58.731 139.748 58.731 139.748Z" fill="white"/>
<path d="M36.4381 63.749C36.4381 62.2868 36.4381 60.8246 36.4381 59.3097C39.3799 59.3097 42.3136 59.3097 45.3275 59.3097C45.3275 57.7914 45.3275 56.3217 45.3275 54.8242C46.8556 54.8242 48.3035 54.8242 49.8057 54.8242C49.8057 57.813 49.8057 60.7808 49.8057 63.7487L49.8255 63.7278C48.35 63.7278 46.8744 63.7278 45.346 63.7278C45.346 65.2554 45.346 66.7063 45.346 68.1572C43.8274 68.1572 42.3631 68.1572 40.8466 68.1572C40.8466 66.6543 40.8466 65.2034 40.8466 63.7278C39.3346 63.7278 37.8764 63.7278 36.4179 63.7278L36.4381 63.749Z" fill="white"/>
<path d="M94.4519 5.59473C90.0192 5.59473 85.5864 5.59473 81.0977 5.59473C81.0977 7.06789 81.0977 8.52053 81.0977 10.0245C79.5945 10.0245 78.1452 10.0245 76.643 10.0245C76.643 7.10928 76.643 4.15099 76.643 1.1626C82.5527 1.1626 88.4604 1.1626 94.4311 1.1626C94.4311 2.65423 94.4311 4.13457 94.4311 5.61491C94.4315 5.61525 94.4519 5.59473 94.4519 5.59473Z" fill="white"/>
<path d="M94.4294 126.353C95.8889 126.353 97.3488 126.353 98.8554 126.353C98.8554 129.303 98.8554 132.244 98.8554 135.263C95.9405 135.263 92.9883 135.263 89.9816 135.263C89.9816 136.793 89.9816 138.245 89.9816 139.727C88.4781 139.727 87.0298 139.727 85.5253 139.727C85.5253 136.742 85.5253 133.773 85.5253 130.805L85.5055 130.825C88.4798 130.825 91.4544 130.825 94.4506 130.825C94.4506 129.253 94.4506 127.794 94.4506 126.333L94.4294 126.353Z" fill="white"/>
<path d="M139.054 72.6917C140.548 72.6924 142.043 72.6927 143.537 72.6934L143.517 72.6729C143.517 74.1341 143.517 75.5956 143.517 77.1109C144.991 77.1109 146.439 77.1109 147.938 77.1109C147.938 80.1191 147.938 83.0743 147.938 86.0873C146.468 86.0873 144.993 86.0873 143.517 86.0873L143.537 86.1075C143.537 84.6323 143.537 83.1574 143.537 81.6155C141.999 81.6155 140.527 81.6155 139.055 81.6155L139.075 81.6357C139.075 78.6476 139.075 75.6599 139.075 72.6719L139.054 72.6917Z" fill="white"/>
<path d="M9.66427 59.2565C8.20443 59.2565 6.74493 59.2565 5.23218 59.2565C5.23218 62.2257 5.23218 65.1666 5.23218 68.1587C3.73206 68.1587 2.28314 68.1587 0.781311 68.1587C0.781311 63.755 0.781311 59.3085 0.781311 54.8055C3.7382 54.8055 6.7009 54.8055 9.66325 54.8055L9.64311 54.7847C9.64311 56.2821 9.64311 57.7792 9.64311 59.2767L9.66427 59.2565Z" fill="white"/>
<path d="M18.5889 45.8599C18.5889 44.3977 18.5889 42.9355 18.5889 41.4182C17.1116 41.4182 15.6627 41.4182 14.1649 41.4182C14.1649 39.9133 14.1649 38.462 14.1649 36.9587C17.0778 36.9587 20.0286 36.9587 23.01 36.9587C23.01 39.9006 23.01 42.8404 23.01 45.8394C21.5212 45.8394 20.0449 45.8394 18.5684 45.8394L18.5889 45.8599Z" fill="white"/>
<path d="M27.4926 50.3138C27.4923 51.8105 27.492 53.3076 27.4916 54.8044L27.5121 54.7839C26.0553 54.7839 24.5985 54.7839 23.0653 54.7839C23.0653 56.2711 23.0653 57.7381 23.0653 59.2564C21.5154 59.2564 20.0412 59.2564 18.5674 59.2564L18.5882 59.2766C18.5882 56.2885 18.5882 53.3008 18.5882 50.3127L18.5684 50.3336C21.5498 50.334 24.5317 50.334 27.5131 50.3343L27.4926 50.3138Z" fill="white"/>
<path d="M107.817 27.9737C109.275 27.9737 110.733 27.9737 112.28 27.9737C112.28 32.4493 112.28 36.9197 112.28 41.3901L112.3 41.3693C110.806 41.3693 109.312 41.3693 107.818 41.3693L107.838 41.3895C107.838 36.9108 107.838 32.4325 107.838 27.9539L107.817 27.9737Z" fill="white"/>
<path d="M31.9558 108.445C31.9558 109.907 31.9558 111.369 31.9558 112.879C27.5148 112.879 23.081 112.879 18.5892 112.879C18.5892 111.404 18.5892 109.925 18.5892 108.446L18.5684 108.467C23.0377 108.467 27.5066 108.467 31.976 108.467L31.9558 108.445Z" fill="white"/>
<path d="M18.5684 45.8394C18.5684 47.3375 18.5684 48.8356 18.5684 50.3337L18.5885 50.3129C17.1147 50.3129 15.6405 50.3129 14.0905 50.3129C14.0905 51.8514 14.0905 53.3187 14.0905 54.7847C12.557 54.7847 11.1002 54.7847 9.64343 54.7847L9.66357 54.8055C9.66357 51.8397 9.66357 48.8739 9.66357 45.8599C12.67 45.8599 15.6296 45.8599 18.5892 45.8599C18.5889 45.8599 18.5684 45.8394 18.5684 45.8394Z" fill="white"/>
<path d="M143.537 130.827C143.537 127.877 143.537 124.926 143.537 121.924C145.002 121.924 146.467 121.924 147.961 121.924C147.961 124.868 147.961 127.807 147.961 130.807C146.469 130.807 144.993 130.807 143.517 130.807L143.537 130.827Z" fill="white"/>
<path d="M27.5316 41.325C27.5316 39.8354 27.5316 38.3999 27.5316 36.9363C30.4966 36.9363 33.4331 36.9363 36.3988 36.9363C36.3988 38.4163 36.3988 39.8689 36.3988 41.325C33.4177 41.325 30.4642 41.325 27.5316 41.325Z" fill="white"/>
<path d="M27.5131 50.334C27.5131 48.8718 27.5131 47.41 27.5131 45.8992C30.4707 45.8992 33.4204 45.8992 36.3995 45.8992C36.3995 47.3583 36.3995 48.8089 36.3995 50.3135C33.4153 50.3135 30.4543 50.3135 27.493 50.3135C27.4926 50.3139 27.5131 50.334 27.5131 50.334Z" fill="white"/>
<path d="M125.728 144.256C127.175 144.256 128.607 144.256 130.09 144.256C130.09 145.696 130.09 147.149 130.09 148.652C128.679 148.652 127.229 148.652 125.728 148.652C125.728 147.238 125.728 145.785 125.728 144.256Z" fill="white"/>
<path d="M5.20145 86.1061C5.20145 84.6093 5.20179 83.1122 5.20179 81.6154L5.18097 81.6356C6.67529 81.6356 8.16926 81.6356 9.66358 81.6356C9.66358 81.6356 9.64344 81.6147 9.64378 81.6147C9.64378 83.09 9.64378 84.5652 9.64378 86.0859C8.12523 86.0859 6.65344 86.0859 5.18131 86.0859L5.20145 86.1061Z" fill="white"/>
<path d="M5.20176 81.6154C3.74499 81.6154 2.28788 81.6154 0.779907 81.6154C0.779907 80.1487 0.779907 78.6831 0.779907 77.1644C2.25306 77.1644 3.7269 77.1644 5.20074 77.1644L5.1806 77.1436C5.1806 78.641 5.1806 80.1381 5.1806 81.6356L5.20176 81.6154Z" fill="white"/>
<path d="M81.0188 148.679C79.5228 148.679 78.0902 148.679 76.6242 148.679C76.6242 147.203 76.6242 145.751 76.6242 144.265C78.0861 144.265 79.5354 144.265 81.0188 144.265C81.0188 145.73 81.0188 147.182 81.0188 148.679Z" fill="white"/>
<path d="M49.8255 5.61553C49.8255 4.15537 49.8255 2.69555 49.8255 1.18408C51.2891 1.18408 52.752 1.18408 54.2682 1.18408C54.2682 2.661 54.2682 4.13827 54.2682 5.61553L54.2883 5.59467C52.794 5.59467 51.3 5.59467 49.8057 5.59467L49.8255 5.61553Z" fill="white"/>
<path d="M112.256 5.5811C110.76 5.5811 109.328 5.5811 107.862 5.5811C107.862 4.10554 107.862 2.65325 107.862 1.16675C109.323 1.16675 110.773 1.16675 112.256 1.16675C112.256 2.6317 112.256 4.08399 112.256 5.5811Z" fill="white"/>
<path d="M125.666 135.297C127.124 135.297 128.582 135.297 130.09 135.297C130.09 136.767 130.09 138.234 130.09 139.73C128.637 139.73 127.19 139.73 125.687 139.73C125.687 138.233 125.687 136.755 125.687 135.277C125.687 135.277 125.666 135.297 125.666 135.297Z" fill="white"/>
<path d="M5.18095 86.0854C5.18095 87.5463 5.18095 89.0075 5.18095 90.5186C3.7136 90.5186 2.25 90.5186 0.75705 90.5186C0.75705 89.0622 0.75705 87.6126 0.75705 86.106C2.25103 86.106 3.72623 86.106 5.20109 86.106C5.20143 86.106 5.18095 86.0854 5.18095 86.0854Z" fill="white"/>
<path d="M107.818 135.275C107.818 136.737 107.818 138.199 107.818 139.724C106.317 139.724 104.822 139.724 103.326 139.723C103.325 139.723 103.349 139.743 103.348 139.743C103.347 138.281 103.347 136.821 103.347 135.296C104.883 135.296 106.36 135.296 107.838 135.296C107.838 135.296 107.818 135.275 107.818 135.275Z" fill="white"/>
<path d="M27.4916 54.8045C28.9494 54.8045 30.4076 54.8045 31.9155 54.8045C31.9155 56.2749 31.9155 57.7415 31.9155 59.2373C30.4622 59.2373 29.0157 59.2373 27.5121 59.2373C27.5121 57.7402 27.5121 56.2619 27.5121 54.7839L27.4916 54.8045Z" fill="white"/>
<path d="M5.20074 77.1646C5.20074 75.7044 5.20074 74.2446 5.20074 72.7332C6.66434 72.7332 8.12726 72.7332 9.64342 72.7332C9.64342 74.2101 9.64342 75.6873 9.64342 77.1646L9.66322 77.1437C8.1689 77.1437 6.67492 77.1437 5.1806 77.1437L5.20074 77.1646Z" fill="white"/>
<path d="M14.1059 95.0291C14.1059 96.4899 14.1059 97.9511 14.1059 99.4622C12.6386 99.4622 11.175 99.4622 9.68237 99.4622C9.68237 98.0058 9.68237 96.5563 9.68237 95.0496C11.1763 95.0496 12.6516 95.0496 14.1264 95.0496L14.1059 95.0291Z" fill="white"/>
<path d="M49.804 45.8608C51.2618 45.8608 52.7199 45.8608 54.2279 45.8608C54.2279 47.3312 54.2279 48.7978 54.2279 50.2939C52.7746 50.2939 51.328 50.2939 49.8245 50.2939C49.8245 48.7965 49.8245 47.3185 49.8245 45.8406C49.8245 45.8402 49.804 45.8608 49.804 45.8608Z" fill="white"/>
<path d="M18.5892 103.994C18.5892 102.519 18.5892 101.044 18.5892 99.5226C20.1074 99.5226 21.5796 99.5226 23.0517 99.5226L23.0309 99.5024C23.0309 100.978 23.0309 102.453 23.0309 103.974C21.5123 103.974 20.0405 103.974 18.5684 103.974L18.5892 103.994Z" fill="white"/>
<path d="M143.537 72.6934C143.537 71.2326 143.537 69.7714 143.537 68.2603C145.005 68.2603 146.468 68.2603 147.961 68.2603C147.961 69.7167 147.961 71.1662 147.961 72.6729C146.467 72.6729 144.992 72.6729 143.517 72.6729L143.537 72.6934Z" fill="white"/>
<path d="M147.941 103.961C146.49 103.961 145.058 103.961 143.577 103.961C143.577 102.516 143.577 101.063 143.577 99.5615C144.993 99.5615 146.442 99.5615 147.941 99.5615C147.941 100.981 147.941 102.433 147.941 103.961Z" fill="white"/>
<path d="M18.5892 108.447C17.0853 108.438 15.5814 108.43 14.0769 108.421C14.0759 108.42 14.0997 108.441 14.0987 108.44C14.0977 106.979 14.0977 105.518 14.0977 103.995C15.6337 103.995 17.1116 103.995 18.5892 103.995L18.5684 103.974C18.5684 105.472 18.5684 106.969 18.5684 108.466L18.5892 108.447Z" fill="white"/>
<path d="M134.612 108.468C134.612 107.007 134.612 105.546 134.612 104.035C136.08 104.035 137.543 104.035 139.036 104.035C139.036 105.491 139.036 106.941 139.036 108.447C137.542 108.447 136.067 108.447 134.592 108.447C134.592 108.447 134.612 108.468 134.612 108.468Z" fill="white"/>
<path d="M143.565 108.476C145.05 108.476 146.483 108.476 147.952 108.476C147.952 109.948 147.952 111.4 147.952 112.89C146.502 112.89 145.053 112.89 143.565 112.89C143.565 111.437 143.565 109.984 143.565 108.476Z" fill="white"/>
<path d="M58.7306 27.9529C58.7306 29.413 58.7306 30.8729 58.7306 32.3843C57.267 32.3843 55.8041 32.3843 54.288 32.3843C54.288 30.9074 54.288 29.4301 54.288 27.9529L54.2678 27.9737C55.7621 27.9737 57.2561 27.9737 58.7504 27.9737L58.7306 27.9529Z" fill="white"/>
<path d="M40.9016 32.4255C39.4445 32.4255 37.9877 32.4255 36.4794 32.4255C36.4794 30.9589 36.4794 29.4929 36.4794 27.9736C37.9532 27.9736 39.4274 27.9736 40.9016 27.9736L40.8807 27.9534C40.8807 29.4508 40.8807 30.9479 40.8807 32.4454L40.9016 32.4255Z" fill="white"/>
<path d="M98.8823 61.4261C99.2332 68.6595 97.2098 75.1723 92.9675 81.0133C92.8279 81.2052 92.7081 81.4114 92.5794 81.6112C91.7087 82.6239 90.838 83.6364 89.9669 84.6491C89.4495 85.1259 88.932 85.6031 88.4146 86.0799C87.9289 86.4705 87.4439 86.8618 86.9571 87.251C83.833 89.752 80.3559 91.6011 76.5778 92.8933C75.0937 93.2753 73.61 93.6574 72.1259 94.0391C70.636 94.1896 69.1458 94.3405 67.6559 94.4913C66.1749 94.4417 64.6939 94.3918 63.2129 94.3418C62.5729 94.257 61.9118 94.2478 61.2964 94.0747C58.9522 93.4166 56.623 92.7059 54.288 92.0146C52.8035 91.1503 51.3191 90.2863 49.8347 89.4219C49.7914 86.8149 49.7245 84.2069 50.2303 81.6279C50.6133 80.1428 50.9962 78.6577 51.3789 77.1722C52.4011 74.1595 53.8763 71.3852 55.7522 68.8213C55.8922 68.6301 56.0127 68.4242 56.1424 68.2255C57.5756 66.7161 58.973 65.1704 60.4553 63.7116C61.3042 62.876 62.2913 62.1817 63.2163 61.4237C64.3591 60.7109 65.5022 59.9985 66.6449 59.2856C66.9487 59.1475 67.2573 59.0192 67.5556 58.8697C71.8051 56.745 76.287 55.5167 81.0444 55.3474C82.536 55.3973 84.0276 55.4469 85.5191 55.4965C87.0223 55.7705 88.5484 55.9576 90.0229 56.3427C91.5189 56.7337 92.9641 57.3199 94.4318 57.8207C95.5353 58.4432 96.6293 59.0835 97.7464 59.6804C98.3192 59.9865 98.6953 60.3774 98.7144 61.0591C98.7178 61.1829 98.8236 61.304 98.8823 61.4261ZM89.67 77.1801C89.7785 76.9755 89.8874 76.7706 89.996 76.5661C90.8312 74.9332 91.7476 73.3352 92.4726 71.6544C92.9399 70.5709 93.1262 69.3655 93.4389 68.2145C93.6266 66.751 93.8085 65.287 94.0052 63.8248C94.0734 63.3176 93.8522 63.06 93.4058 62.8322C89.5167 60.8494 85.3925 60.0443 81.0502 60.2823C80.7403 60.2888 80.4286 60.2789 80.1201 60.3049C77.3632 60.5382 74.7009 61.1816 72.1201 62.1738C70.6309 62.942 69.1417 63.7099 67.6525 64.4778C65.9043 65.5032 64.272 66.6771 62.9112 68.1985C62.7613 68.3151 62.5985 68.4181 62.464 68.5501C59.9724 70.9943 58.0023 73.8123 56.6854 77.0429C56.0857 78.5147 55.7406 80.0908 55.2805 81.6197C55.0945 83.111 54.9081 84.6026 54.7221 86.0939C54.8566 86.3621 54.9201 86.7612 55.1362 86.8789C57.6555 88.2508 60.354 89.0748 63.2027 89.4042C66.2036 89.7729 69.1823 89.6771 72.1324 88.9766C73.6243 88.5388 75.1166 88.101 76.6085 87.6632C77.6533 87.147 78.6985 86.6309 79.7433 86.1148C80.1016 85.9328 80.4966 85.7994 80.8116 85.5603C82.395 84.3601 83.9576 83.1325 85.5273 81.9142C85.7117 81.7692 85.9274 81.6505 86.0755 81.475C87.2811 80.0494 88.4737 78.6132 89.67 77.1801Z" fill="#42559F"/>
<path d="M85.5263 108.466C85.5263 105.479 85.5263 102.491 85.5263 99.5028L85.5055 99.523C86.9776 99.523 88.4494 99.523 89.9881 99.523C89.9881 97.9814 89.9881 96.5062 89.9881 95.031L89.968 95.0519C94.4373 95.0447 98.9062 95.0378 103.376 95.031C103.376 99.472 103.376 103.913 103.376 108.405C101.907 108.405 100.458 108.405 98.9298 108.405C98.9298 105.491 98.9298 102.533 98.9298 99.5442C97.4027 99.5442 95.9545 99.5442 94.4502 99.5442C94.4502 101.013 94.4502 102.465 94.4502 103.972C92.9471 103.972 91.4978 103.972 89.9669 103.972C89.9669 105.507 89.9669 106.987 89.9669 108.467L89.9878 108.446C88.4935 108.446 86.9995 108.446 85.5052 108.446L85.5263 108.466Z" fill="white"/>
<path d="M85.5263 99.5026C84.0658 99.5026 82.6053 99.5026 81.0877 99.5026C81.0877 98.039 81.0877 96.5861 81.0877 95.0763C79.5832 95.0763 78.1329 95.0763 76.5775 95.0763C76.5775 94.3118 76.5775 93.6021 76.5775 92.8927C80.3559 91.6005 83.833 89.7515 86.9572 87.2505C87.4435 86.8609 87.9289 86.4696 88.4146 86.0793C88.93 86.0793 89.4451 86.0793 89.9669 86.0793C89.9669 85.5553 89.9669 85.1021 89.9669 84.6486C90.8377 83.6358 91.7084 82.6234 92.5794 81.6106C93.175 81.6106 93.7707 81.6106 94.4031 81.6106C94.4031 84.6062 94.4031 87.5494 94.4031 90.5508C92.9529 90.5508 91.5026 90.5508 89.9683 90.5508C89.9683 92.0886 89.9683 93.57 89.9683 95.0517L89.9884 95.0308C88.5163 95.0308 87.0445 95.0308 85.5058 95.0308C85.5058 96.5724 85.5058 98.0476 85.5058 99.5228L85.5263 99.5026Z" fill="white"/>
<path d="M107.818 59.2546C107.818 60.7158 107.818 62.1767 107.818 63.6878C106.351 63.6878 104.887 63.6878 103.394 63.6878C103.394 62.2314 103.394 60.7818 103.394 59.2752C104.888 59.2752 106.363 59.2752 107.838 59.2752L107.818 59.2546Z" fill="white"/>
<path d="M103.355 72.6702C103.355 74.1314 103.355 75.5922 103.355 77.1033C101.888 77.1033 100.424 77.1033 98.9315 77.1033C98.9315 75.6469 98.9315 74.1974 98.9315 72.6907C100.426 72.6907 101.901 72.6907 103.376 72.6907L103.355 72.6702Z" fill="white"/>
<path d="M112.28 99.501C112.28 100.962 112.28 102.423 112.28 103.934C110.813 103.934 109.349 103.934 107.856 103.934C107.856 102.478 107.856 101.028 107.856 99.5215C109.351 99.5215 110.826 99.5215 112.301 99.5215L112.28 99.501Z" fill="white"/>
<path d="M89.9669 108.466C91.4241 108.466 92.8808 108.466 94.3891 108.466C94.3891 109.933 94.3891 111.399 94.3891 112.917C92.916 112.917 91.4418 112.917 89.968 112.917L89.9881 112.938C89.9881 111.441 89.9881 109.943 89.9881 108.446L89.9669 108.466Z" fill="white"/>
<path d="M89.9881 117.41C88.4938 117.41 86.9998 117.41 85.5055 117.41C85.5127 115.913 85.5195 114.416 85.5263 112.918L85.5055 112.938C86.9998 112.938 88.4938 112.938 89.9881 112.938L89.968 112.917C89.9748 114.415 89.9813 115.912 89.9881 117.41Z" fill="white"/>
<path d="M81.0502 60.2818C85.3922 60.0437 89.5168 60.8489 93.4058 62.8317C93.8523 63.0595 94.0734 63.317 94.0052 63.8243C93.8086 65.2865 93.6266 66.7507 93.4389 68.214C92.2975 68.214 91.1565 68.214 89.9605 68.214C89.9605 66.682 89.9605 65.2293 89.9605 63.7733C88.4556 63.7733 87.007 63.7733 85.5031 63.7733C85.5031 65.2605 85.5031 66.7128 85.5031 68.2232C84.4706 68.2232 83.4931 68.2232 82.5158 68.2232C82.1315 67.8644 81.7584 67.4926 81.3608 67.1495C79.6412 65.6654 77.6649 64.8179 75.3774 64.7392C74.9255 64.7238 74.7193 64.8825 74.7238 65.3569C74.7378 66.868 74.7408 68.3795 74.7214 69.8906C74.7156 70.3414 74.9245 70.5467 75.3224 70.6414C75.7621 70.7461 76.1996 70.8593 76.6382 70.9688C76.627 71.5406 76.6154 72.1129 76.6041 72.6848C74.8255 72.6779 73.0468 72.6714 71.2682 72.6646C71.3532 72.4518 71.4378 72.2391 71.5395 71.9849C71.1381 71.6258 70.7391 71.2848 70.3582 70.9243C69.4558 70.0712 68.5622 69.209 67.6648 68.3504C67.6611 67.0592 67.6573 65.7681 67.6536 64.4769C69.1428 63.7086 70.632 62.9408 72.1212 62.1725C72.1212 62.6883 72.1212 63.2045 72.1212 63.696C75.1576 63.696 78.0906 63.696 81.0512 63.696C81.0502 62.5307 81.0502 61.4064 81.0502 60.2818Z" fill="white"/>
<path d="M64.9311 77.1478C62.8866 77.1478 60.8421 77.1478 58.7296 77.1478C58.7296 78.6852 58.7296 80.1605 58.7296 81.6353L58.7504 81.6151C57.5937 81.6165 56.4369 81.6179 55.2798 81.6193C55.7403 80.0903 56.0854 78.5142 56.6851 77.0424C58.0016 73.8119 59.972 70.9938 62.4637 68.5496C62.5982 68.4176 62.7613 68.3146 62.9112 68.198C63.0085 68.3875 63.1863 68.5753 63.19 68.7665C63.215 70.0652 63.203 71.3646 63.203 72.6712C63.8385 72.6712 64.3833 72.6712 64.9281 72.6712C64.8799 73.0016 64.7844 73.333 64.7922 73.6621C64.8195 74.8247 64.882 75.9859 64.9311 77.1478Z" fill="white"/>
<path d="M72.1321 88.9765C72.1321 88.0434 72.1321 87.1103 72.1321 86.1218C70.6466 86.1218 69.197 86.1218 67.6836 86.1218C67.6836 84.7328 67.6836 83.3985 67.6836 82.0639C68.0628 82.3512 68.4338 82.6502 68.8223 82.9241C71.0569 84.4992 73.5226 85.2072 76.2447 84.7862C78.6019 84.4216 80.6211 83.3749 82.2261 81.5779C83.1582 81.5936 84.091 81.5953 85.0222 81.6377C85.1945 81.6456 85.3591 81.8176 85.5273 81.9141C83.9576 83.1321 82.395 84.3597 80.8116 85.5599C80.4962 85.799 80.1013 85.9324 79.7429 86.1143C78.7032 86.1143 77.6636 86.1143 76.6082 86.1143C76.6082 86.6684 76.6082 87.1658 76.6082 87.6627C75.1163 88.1009 73.6243 88.5387 72.1321 88.9765Z" fill="white"/>
<path d="M45.3429 81.6152C46.972 81.6193 48.6012 81.6234 50.23 81.6275C49.7238 84.2065 49.791 86.8149 49.834 89.4216C49.834 89.7766 49.834 90.1316 49.834 90.579C48.3141 90.579 46.8283 90.579 45.3426 90.579C45.3429 87.5913 45.3429 84.6033 45.3429 81.6152Z" fill="white"/>
<path d="M58.7296 81.6354C60.1908 81.6354 61.6517 81.6354 63.2024 81.6354C63.2024 84.2339 63.2024 86.819 63.2024 89.4041C60.3537 89.0744 57.6551 88.2504 55.1358 86.8785C54.9198 86.7609 54.8563 86.3617 54.7218 86.0935C56.054 86.0935 57.3865 86.0935 58.7508 86.0935C58.7508 84.5427 58.7508 83.0788 58.7508 81.6152L58.7296 81.6354Z" fill="white"/>
<path d="M84.6535 72.6736C86.3997 72.6736 88.1456 72.6736 89.9959 72.6736C89.9959 73.9942 89.9959 75.2803 89.9959 76.566C89.8874 76.7705 89.7789 76.9754 89.6703 77.1799C87.9971 77.169 86.324 77.158 84.6505 77.1471C84.8911 75.6562 84.9972 74.1649 84.6535 72.6736Z" fill="white"/>
<path d="M54.2678 95.0508C54.2743 94.0387 54.2811 93.0266 54.2876 92.0142C56.6226 92.7054 58.9518 93.4162 61.296 94.0743C61.9114 94.247 62.5726 94.2566 63.2126 94.3414C63.2126 94.5555 63.2126 94.7696 63.2126 95.0508C60.2075 95.0508 57.2377 95.0508 54.2678 95.0508Z" fill="white"/>
<path d="M63.2163 61.4236C63.2085 60.7012 63.2006 59.9788 63.1928 59.2561C64.3434 59.266 65.4943 59.2756 66.6449 59.2855C65.5022 59.9983 64.3594 60.7111 63.2163 61.4236Z" fill="white"/>
<path d="M72.1259 94.0391C72.1259 94.3483 72.1259 94.6578 72.1259 95.0043C70.6572 95.0043 69.2073 95.0043 67.6819 95.0043C67.674 94.847 67.6648 94.6687 67.6559 94.4909C69.1458 94.3404 70.6357 94.1896 72.1259 94.0391Z" fill="white"/>
<path d="M85.4966 54.7942C85.5041 55.0285 85.5116 55.2628 85.5191 55.4967C84.0276 55.4468 82.536 55.3972 81.0444 55.3473C81.0519 55.1797 81.0594 55.0124 81.0679 54.814C82.5561 54.814 84.0364 54.814 85.5164 54.814L85.4966 54.7942Z" fill="#030407"/>
<path d="M81.043 27.9534C82.5373 27.9534 84.0313 27.9534 85.5256 27.9534C85.5222 28.1692 85.5161 28.3847 85.5161 28.6005C85.5154 31.3344 85.5157 34.0683 85.5157 36.8778C88.4733 36.8778 91.4234 36.8778 94.4509 36.8778C94.4509 38.4314 94.4509 39.9103 94.4509 41.389C91.507 41.389 88.5631 41.389 85.5393 41.389C85.5393 42.856 85.5393 44.3254 85.5393 45.8218C84.0122 45.8218 82.5647 45.8218 81.0625 45.8218C81.0625 44.35 81.0625 42.8984 81.0625 41.3674C79.533 41.3674 78.0571 41.3674 76.5809 41.3674L76.6014 41.388C76.6014 39.9271 76.6014 38.4663 76.6014 36.9271C78.0687 36.9271 79.534 36.9271 81.0434 36.9271C81.043 33.884 81.043 30.9188 81.043 27.9534Z" fill="white"/>
<path d="M85.5168 54.8145C85.5168 53.3516 85.5168 51.8887 85.5168 50.3745C86.9906 50.3745 88.4552 50.3745 89.9492 50.3745C89.9492 51.8302 89.9492 53.2808 89.9492 54.7943C88.4508 54.7943 86.9739 54.7943 85.497 54.7943C85.4966 54.7943 85.5168 54.8145 85.5168 54.8145Z" fill="white"/>
<path d="M76.5805 41.3674C76.5805 42.8286 76.5805 44.2895 76.5805 45.8006C75.1132 45.8006 73.6496 45.8006 72.1566 45.8006C72.1566 44.3442 72.1566 42.8946 72.1566 41.388C73.6506 41.388 75.1258 41.388 76.601 41.388L76.5805 41.3674Z" fill="white"/>
<path d="M72.1181 32.4454C72.1181 30.9479 72.1181 29.4508 72.1181 27.9534C73.6124 27.9534 75.1064 27.9534 76.6007 27.9534C76.6007 29.4286 76.6007 30.9035 76.6007 32.4454C75.062 32.4454 73.5899 32.4454 72.1181 32.4454Z" fill="white"/>
<path d="M89.9413 28.0042C91.4176 28.0042 92.8941 28.0042 94.4052 28.0042C94.4052 29.4575 94.4052 30.9074 94.4052 32.3966C92.9576 32.3966 91.5108 32.3966 89.9605 32.3966C89.9605 30.9334 89.9605 29.4578 89.9615 27.9812C89.9625 27.9802 89.9413 28.0042 89.9413 28.0042Z" fill="white"/>
<path d="M85.5055 27.9737C85.5055 26.4762 85.5055 24.9791 85.5055 23.4817C86.964 23.4817 88.4228 23.4817 89.9434 23.4817C89.9434 25.0058 89.9434 26.5039 89.9427 28.0031C89.942 28.0041 89.9628 27.9802 89.9622 27.9812C88.4757 27.9792 86.9906 27.9764 85.5055 27.9737Z" fill="white"/>
<path d="M67.63 103.963C66.1381 103.963 64.7055 103.963 63.2382 103.963C63.2382 102.489 63.2382 101.036 63.2382 99.5479C64.6956 99.5479 66.1449 99.5479 67.63 99.5479C67.63 101.009 67.63 102.461 67.63 103.963Z" fill="white"/>
<path d="M72.1378 108.468C72.1378 107.007 72.1378 105.546 72.1378 104.035C73.6052 104.035 75.0688 104.035 76.5618 104.035C76.5618 105.491 76.5618 106.941 76.5618 108.447C75.0674 108.447 73.5926 108.447 72.1174 108.447C72.1174 108.447 72.1378 108.468 72.1378 108.468Z" fill="white"/>
<path d="M85.5263 112.918C84.0692 112.918 82.6124 112.918 81.1041 112.918C81.1041 111.452 81.1041 109.986 81.1041 108.466C82.578 108.466 84.0522 108.466 85.5263 108.466L85.5055 108.446C85.5055 109.943 85.5055 111.441 85.5055 112.938L85.5263 112.918Z" fill="white"/>
<path d="M29.7344 78.0938C31.4849 78.0938 32.904 76.6718 32.904 74.9176C32.904 73.1635 31.4849 71.7415 29.7344 71.7415C27.984 71.7415 26.5649 73.1635 26.5649 74.9176C26.5649 76.6718 27.984 78.0938 29.7344 78.0938Z" fill="white"/>
<path d="M121.161 121.844C119.675 121.844 118.243 121.844 116.782 121.844C116.782 120.363 116.782 118.911 116.782 117.429C118.258 117.429 119.708 117.429 121.161 117.429C121.161 118.926 121.161 120.395 121.161 121.844Z" fill="white"/>
<path d="M22.766 16.6221C22.7766 20.2829 19.8559 23.2189 16.2064 23.2162C12.598 23.2138 9.66598 20.2884 9.65506 16.6799C9.64414 13.0385 12.5918 10.0751 16.2228 10.0771C19.8289 10.0795 22.7554 13.0064 22.766 16.6221Z" fill="white"/>
<path d="M132.203 23.216C128.599 23.2026 125.679 20.2638 125.679 16.6516C125.68 13.0147 128.641 10.0639 132.276 10.0779C135.908 10.092 138.818 13.0602 138.789 16.7224C138.761 20.3398 135.83 23.2293 132.203 23.216Z" fill="white"/>
<path d="M22.766 132.92C22.7646 136.576 19.8306 139.497 16.1754 139.483C12.572 139.469 9.65299 136.529 9.65436 132.916C9.65607 129.279 12.6177 126.33 16.2535 126.345C19.8565 126.36 22.7674 129.299 22.766 132.92Z" fill="white"/>
<path d="M84.6505 77.147C84.1286 78.7813 83.4569 80.3331 82.2264 81.5781C80.6215 83.3752 78.6019 84.4218 76.245 84.7864C73.523 85.2075 71.0572 84.4995 68.8226 82.9244C68.4342 82.6504 68.0631 82.3515 67.6839 82.0642C67.0934 81.2368 66.4333 80.4494 65.9333 79.5704C65.5046 78.8172 65.2585 77.9593 64.9315 77.1477C64.8823 75.9861 64.8199 74.8246 64.7926 73.6623C64.7847 73.3333 64.8803 73.0019 64.9284 72.6714C65.2418 71.1658 65.8978 69.8236 66.8146 68.5947C67.0603 68.2653 67.2948 68.1333 67.6641 68.3512C68.5615 69.2097 69.4551 70.072 70.3575 70.925C70.7384 71.2852 71.1374 71.6262 71.5388 71.9857C71.4375 72.2398 71.3525 72.4525 71.2675 72.6653C70.6019 73.4017 70.5357 74.3057 70.6128 75.221C70.6958 76.2047 71.2624 76.8922 71.8993 77.656C73.5028 79.5779 76.968 79.3853 78.1657 77.1586C79.2023 76.2317 79.278 73.69 78.3179 72.6817C77.7578 72.1108 77.1977 71.54 76.6375 70.9691C76.1989 70.8597 75.7614 70.7464 75.3217 70.6418C74.9238 70.547 74.7149 70.3418 74.7207 69.891C74.7401 68.3799 74.7371 66.8684 74.7231 65.3573C74.7186 64.8829 74.9248 64.7238 75.3767 64.7396C77.6643 64.8182 79.6405 65.6662 81.3601 67.1499C81.7578 67.493 82.1308 67.8648 82.5152 68.2236C83.5067 69.5722 84.3249 71.0047 84.6532 72.6735C84.9973 74.1648 84.8911 75.6561 84.6505 77.147Z" fill="#2B2A29"/>
<path d="M76.5802 72.6721C77.1594 72.6752 77.7387 72.6786 78.3179 72.6817C79.278 73.69 79.2023 76.2314 78.1657 77.1586C77.6697 77.1586 77.1734 77.1586 76.5802 77.1586C76.5802 75.6458 76.5802 74.159 76.5802 72.6721Z" fill="white"/>
</svg>
