<svg width="27" height="27" viewBox="0 0 27 27" fill="none" xmlns="http://www.w3.org/2000/svg">
<path d="M25.7479 2.10668L0.890108 11.6961C0.2789 11.9335 0.284834 12.7999 0.896042 13.0313L6.95472 15.2922L9.29868 22.8284C9.44703 23.3091 10.0404 23.4871 10.4321 23.1667L13.8086 20.4133C14.1646 20.1225 14.669 20.1106 15.0369 20.3777L21.1253 24.8045C21.5466 25.1071 22.14 24.8816 22.2409 24.3713L26.7033 2.91965C26.822 2.36185 26.276 1.90493 25.7479 2.10668ZM21.0066 7.1269L11.2391 16.206C10.8949 16.5265 10.6754 16.9537 10.6101 17.4166L10.2778 19.8851C10.2363 20.2115 9.77341 20.2471 9.67846 19.9267L8.40264 15.4287C8.25428 14.9183 8.46791 14.3665 8.92483 14.0876L20.7633 6.7946C20.971 6.66998 21.1905 6.95482 21.0066 7.1269Z" fill="white"/>
</svg>
