<svg width="24" height="25" viewBox="0 0 24 25" fill="none" xmlns="http://www.w3.org/2000/svg">
<g clip-path="url(#clip0_206_66)">
<path d="M11.7432 19.572H13.1773C13.1773 19.572 13.6108 19.522 13.8314 19.2735C14.0354 19.0454 14.0279 18.6172 14.0279 18.6172C14.0279 18.6172 13.9994 16.6124 14.8934 16.3171C15.774 16.0264 16.9051 18.2547 18.1037 19.1126C19.0097 19.7611 19.6983 19.6189 19.6983 19.6189L22.904 19.572C22.904 19.572 24.5812 19.4642 23.7861 18.0906C23.7216 17.9781 23.3226 17.0749 21.4024 15.2185C19.3923 13.2746 19.6623 13.5903 22.0835 10.2291C23.5581 8.18208 24.1476 6.93199 23.9631 6.39757C23.7876 5.88816 22.703 6.02254 22.703 6.02254L19.0967 6.04442C19.0967 6.04442 18.8297 6.00692 18.6302 6.13037C18.4367 6.25225 18.3122 6.53352 18.3122 6.53352C18.3122 6.53352 17.7406 8.11801 16.9786 9.46499C15.372 12.3074 14.7284 12.4574 14.4659 12.2808C13.8554 11.8699 14.0084 10.6276 14.0084 9.74626C14.0084 6.99137 14.4089 5.84284 13.2268 5.54595C12.8338 5.4475 12.5458 5.38187 11.5422 5.37093C10.2551 5.35687 9.16451 5.37562 8.54796 5.68971C8.13693 5.8991 7.82041 6.36632 8.01392 6.39288C8.25244 6.4257 8.79248 6.54446 9.079 6.95074C9.44953 7.47422 9.43603 8.65243 9.43603 8.65243C9.43603 8.65243 9.64904 11.8949 8.93949 12.298C8.45195 12.5746 7.78441 12.0105 6.3518 9.43061C5.61824 8.1102 5.0632 6.64915 5.0632 6.64915C5.0632 6.64915 4.9567 6.37726 4.76618 6.23194C4.53516 6.05536 4.21114 5.99911 4.21114 5.99911L0.781885 6.02098C0.781885 6.02098 0.267347 6.03661 0.0783331 6.26944C-0.0896794 6.47727 0.0648321 6.90542 0.0648321 6.90542C0.0648321 6.90542 2.75003 13.4481 5.78926 16.7468C8.57796 19.7704 11.7432 19.572 11.7432 19.572Z" fill="white"/>
</g>
<defs>
<clipPath id="clip0_206_66">
<rect width="24" height="25" fill="white"/>
</clipPath>
</defs>
</svg>
